<svg id="Pfad" xmlns="http://www.w3.org/2000/svg" viewBox="0 0 396.19 226.88"><defs><style>.cls-1{fill:#c08845;}</style></defs><path class="cls-1" d="M198.32,150.71a29.34,29.34,0,1,0,29.33,29.34A29.37,29.37,0,0,0,198.32,150.71Zm0,40.67a11.34,11.34,0,1,1,11.33-11.33A11.35,11.35,0,0,1,198.32,191.38Z" transform="translate(-0.22 -80.45)"/><path class="cls-1" d="M96.14,145.68a64.69,64.69,0,1,0,64.69,64.69A64.75,64.75,0,0,0,96.14,145.68Zm0,111.37a46.69,46.69,0,1,1,46.69-46.68A46.73,46.73,0,0,1,96.14,257.05Z" transform="translate(-0.22 -80.45)"/><path class="cls-1" d="M301.54,145.68a64.69,64.69,0,1,0,64.69,64.69A64.76,64.76,0,0,0,301.54,145.68Zm0,111.37a46.69,46.69,0,1,1,46.69-46.68A46.74,46.74,0,0,1,301.54,257.05Z" transform="translate(-0.22 -80.45)"/><path class="cls-1" d="M345.54,127.56,295.11,85.73A8.91,8.91,0,0,0,291.74,84c-22.27-6.11-40.77-4.28-55,5.42-11.43,7.79-17.49,19-20.65,27.83-13.91-6.73-26.5-4.88-35.75-.51-3.21-8.7-9.26-19.67-20.46-27.32-14.23-9.7-32.73-11.53-55-5.42a8.77,8.77,0,0,0-3.37,1.75L51.1,127.57a95.4,95.4,0,1,0,133.69,118.3c3.2-2.35,13.52-8.48,26.56-1.35a95.4,95.4,0,1,0,134.19-117ZM301,289.33a77.4,77.4,0,0,1-73.28-52.4,19.31,19.31,0,0,0-4.91-6.54c-20.6-13-40-5.59-49,1.21a9,9,0,0,0-4.91,5.33,77.41,77.41,0,1,1-108.17-94.1,8.82,8.82,0,0,0,2.74-2.14l48-39.84c16-4.06,28.84-2.94,38.14,3.34,14,9.46,16.3,28.11,16.32,28.26a9,9,0,0,0,15.57,5.14c.58-.63,14.5-15.32,34.55.9a9,9,0,0,0,14.61-6c0-.19,2.36-18.73,16.21-28.18,9.31-6.35,22.17-7.5,38.25-3.42l48,39.84a8.93,8.93,0,0,0,2.74,2.14A77.41,77.41,0,0,1,301,289.33Z" transform="translate(-0.22 -80.45)"/></svg>