<svg id="Ebene_1" data-name="Ebene 1" xmlns="http://www.w3.org/2000/svg" viewBox="0 0 1416.08 188.78"><defs><style>.cls-1{fill:#fff;}.cls-2{fill:#dbc3a5;}</style></defs><polygon class="cls-1" points="0 188.78 0 109.56 47.49 94.39 147.49 85.56 243.49 94.39 412.49 114.56 586.49 150.56 764.49 169.56 977.49 167.56 1147.49 125.56 1251.49 85.56 1355.49 40.55 1416.08 27.55 1416.08 188.78 0 188.78"/><path class="cls-2" d="M1416.08,0c-54.25,9.73-134.8,65.11-171.17,80.61-34.21,14.59-149.78,46.32-195.5,57.34C920,169.15,697.49,166.8,557.72,130.7,200.77,38.48,8.45,97.28,0,100v14.79c169-50.68,363,12.32,493.66,34.5C609.42,169,660.76,178,717,183.11c230.91,21,360.21-19.73,469.68-65.22,139.87-58.14,191.15-76,229.37-72.22Z"/></svg>