<svg id="Pfad" xmlns="http://www.w3.org/2000/svg" viewBox="0 0 395.07 395.07"><defs><style>.cls-1{fill:#c08845;}</style></defs><path class="cls-1" d="M198.43,1.93C89.5,1.93.89,90.54.89,199.47.89,283,53,354.58,126.44,383.42a9,9,0,0,0,1.66.63A196.45,196.45,0,0,0,198.43,397C307.35,397,396,308.39,396,199.47S307.35,1.93,198.43,1.93ZM369.72,253.26a198.52,198.52,0,0,0-41.47-3q-2.37-16.71-5.85-32.39l40.22-11.76c12-4.37,0-12.67,0-12.67l-58.57-34a3.05,3.05,0,0,0-.13-.32l60.16-28.85a179.55,179.55,0,0,1,5.64,123Zm-93.4-109.9-13.7-8c-9.51-3.56-12,5.34-12,5.34s-5.6,13.15-12.84,30.11L203.6,187.25l-15-31.88c1.17-5.09-.8-6.77-3.33-7.07l-11.65-24.75q9.65-4.92,18.89-10.6a278,278,0,0,0,38.56-28.7C248.93,100.63,264,120.43,276.32,143.36ZM257.15,301.09l-6.39-13.58c2.56-1.2,5.12-2.33,7.67-3.41A133.72,133.72,0,0,1,257.15,301.09Zm-45.89-97.55,15.8-7.58c-3.19,7.48-6.36,14.87-9.22,21.56Zm40,33.87a155.55,155.55,0,0,1,6.1,27.79q-7.14,2.81-14.25,6.11l-12.79-27.2ZM139.55,93.4,149.69,115q-5.85,2.48-11.85,4.67A135.68,135.68,0,0,1,139.55,93.4Zm17.78,37.79L167.59,153l-22.66,7.25a156.62,156.62,0,0,1-5.3-22.2Q148.62,134.93,157.33,131.19Zm22,46.76,8,17.08-19.3,9.26C172,195.11,175.9,186,179.33,178ZM166,107.35,146.82,66.57a143.43,143.43,0,0,1,12.09-24.29A186.62,186.62,0,0,1,217.19,72.6,253.48,253.48,0,0,1,166,107.35ZM133.59,262.26c9.52,3.56,12-5.33,12-5.33l11.75-27.54L195,211.32l13.36,28.4c-3.09,8.69.83,10,4.54,9.66l14.16,30.09A301.21,301.21,0,0,0,193.6,301c-7,5.17-13.54,10.41-19.58,15.59C149.57,295.94,129.47,274,114,250.88Zm70.69,53.22a289.13,289.13,0,0,1,30.47-19.74l15.53,33a143.7,143.7,0,0,1-15.7,30.87,488.72,488.72,0,0,1-46.29-31.53C193.3,323.88,198.63,319.65,204.28,315.48ZM356.3,114l-59.87,28.71c-13.75-27.67-31.26-51.42-52.24-70.89a313.67,313.67,0,0,0,30.09-35.09A180.72,180.72,0,0,1,356.3,114ZM257.05,29.77a296.54,296.54,0,0,1-26.52,30.38A206.17,206.17,0,0,0,170,26.91c1.89-2.29,3.54-4.1,4.78-5.41a179.57,179.57,0,0,1,82.32,8.27Zm-192,49.6c-3,10-7.57,29.81-7.16,56a222,222,0,0,1-27-.55A179.8,179.8,0,0,1,65.09,79.37Zm-39.92,73a207.57,207.57,0,0,0,23.58,1.24c3.18,0,6.6-.07,10.23-.21a218.46,218.46,0,0,0,4.28,26.22c.23,1,.5,2.06.75,3.09L33.59,191.6c-12,4.37,0,12.66,0,12.66l48.72,28.26c1.72,3.44,3.55,6.86,5.45,10.26L32.93,269.07a179.63,179.63,0,0,1-7.76-116.7Zm15.59,132.9,56.36-27q7.75,11.89,17,23.39a352.24,352.24,0,0,0,46.32,47.17,348.44,348.44,0,0,0-32.86,35.59A180.65,180.65,0,0,1,40.76,285.27ZM145.43,371a346.05,346.05,0,0,1,29.09-30.7,507.27,507.27,0,0,0,49,33.66c-1.51,1.69-2.71,2.93-3.51,3.73a181,181,0,0,1-21.58,1.3A178.9,178.9,0,0,1,145.43,371Zm187.79-53.1q-.3-25.83-2.78-49.81a181,181,0,0,1,32.88,2.33A179.8,179.8,0,0,1,333.22,317.91Z" transform="translate(-0.89 -1.93)"/></svg>