<svg id="Ebene_1" data-name="Ebene 1" xmlns="http://www.w3.org/2000/svg" viewBox="0 0 934.85 21.55"><defs><style>.cls-1,.cls-2{fill:#5d1a17;}.cls-2{opacity:0.8;}</style></defs><path class="cls-1" d="M477,7.74a.18.18,0,0,1-.2.12.2.2,0,0,0-.16.06s-.08,0-.12,0-.07,0-.1,0-.07,0-.09,0a.15.15,0,0,1-.09,0h-.18a.67.67,0,0,0-.14.09.15.15,0,0,1-.13,0h0s-.05,0-.08,0-.06,0-.1,0a.28.28,0,0,1-.14.1s-.05,0-.08.06h-.13s-.05-.07-.09-.08S475,8,475,8s0,0-.12-.07,0,.06-.06.09h-.13s-.08,0-.13.07l0,0a.3.3,0,0,0,.06-.2s0-.07,0-.11,0-.05,0-.07.11,0,.16,0,0,0,0-.07l-.1,0s0,0,0-.08l-.05,0a.08.08,0,0,1-.06-.08.1.1,0,0,0-.05-.06c-.05,0-.13-.07-.16-.15L474.33,7a.06.06,0,0,1,0-.05c-.09,0-.11-.06-.16-.11H474L474,6.76a.15.15,0,0,0-.05-.11h0s0,.08,0,.12,0,0,0,0,0-.08,0-.11a.15.15,0,0,1-.06-.1l0-.1s0-.09,0-.12a2.25,2.25,0,0,0-.08-.24c0-.06,0-.13-.11-.17V5.86s-.08-.05-.12,0,0-.08-.05-.09,0,0-.06,0-.11-.15-.15-.23,0,0,0,0a.87.87,0,0,0-.05-.28.34.34,0,0,1,0-.17.53.53,0,0,0,0-.12s0-.08,0-.12-.05,0-.07,0a.94.94,0,0,1-.1-.1s-.08,0-.09-.09h-.11l-.09-.1s0-.14,0-.22h0a.06.06,0,0,0,0,0,.7.7,0,0,0-.06-.09s-.08,0-.07-.09-.08-.16-.16-.21a0,0,0,0,1,0,0,.62.62,0,0,0-.13-.24.4.4,0,0,1-.09-.2.33.33,0,0,0-.1-.23s0,0,0-.07h0s0-.07,0-.11h0l0,0a.16.16,0,0,0,.21,0v0a1.06,1.06,0,0,1,.05-.31c0-.06.06-.11,0-.18v0a.39.39,0,0,0-.09-.29.22.22,0,0,1-.06-.14s0-.07-.07-.11,0,0-.05,0l0,0,0,0a1.11,1.11,0,0,1-.19,0c-.06,0-.11,0-.16,0s-.07-.07-.13,0,0,0,0,0,0-.06,0-.1-.11,0-.18,0l0,0H471l0,0s0,0-.05,0-.22.09-.29.19-.06,0-.08,0a.39.39,0,0,0-.28-.05l0-.05a.36.36,0,0,1-.18,0,.34.34,0,0,0-.18,0,.34.34,0,0,1-.2,0c-.05,0-.11,0-.16,0l-.07-.12c-.1,0-.2,0-.3,0l0,0a.25.25,0,0,1-.12,0s-.07,0-.07-.06,0,0,0-.05,0,0-.06,0-.13,0-.2,0-.14,0-.21,0l-.1,0a.39.39,0,0,0-.3.14v.06l0,0V1.9s0,.07.06.12-.14.15-.2.23a.32.32,0,0,1-.19-.1.85.85,0,0,0-.25-.17,2,2,0,0,0-.26-.09.14.14,0,0,0-.11,0,.09.09,0,0,1-.13,0,.18.18,0,0,1-.08-.09s0-.07-.05-.1V1.57l-.08-.08a.31.31,0,0,1-.26-.08c-.12,0-.23,0-.35,0s0,0-.06,0a.13.13,0,0,1-.12,0s-.09,0-.11-.08c-.19,0-.2,0-.22-.1s0,0-.05-.05l0,.08c-.09-.08-.2-.09-.23-.23s.05-.06.09-.09a.53.53,0,0,0,.16-.13.81.81,0,0,0,0-.27s0,0-.06,0-.07-.06-.08-.12,0-.07.06-.08,0,0,0,0,0,0,0-.07,0-.08,0-.14h-.08l-.1.1s0-.07-.06-.09,0-.07,0-.1h-.09s0,0,0,0a.28.28,0,0,0-.25.11c-.07,0-.14,0-.21,0a.05.05,0,0,1-.07,0s-.06,0-.09,0l-.07.06h-.08s0-.06,0,0-.16,0-.23.07-.11,0-.14,0-.05,0-.06-.07h-.16a.33.33,0,0,1-.17,0s0,0,0,0,0,0,0,.06h-.16l0,0s-.09,0-.13,0a1,1,0,0,1-.24,0,.48.48,0,0,1-.15.11.19.19,0,0,0-.14,0s0,0,0,.06l-.05,0s-.07,0-.11,0a.13.13,0,0,1-.1,0,.11.11,0,0,0-.1.06.24.24,0,0,1-.17.12.48.48,0,0,1-.12,0s-.07,0-.11,0,0,0,0,0,0-.07-.11,0a.15.15,0,0,1-.1,0,.44.44,0,0,0-.2,0,.41.41,0,0,1-.11,0l-.14-.13V.46a.3.3,0,0,0-.21.08.71.71,0,0,1,0,.15s0,.06-.05.09,0,.07,0,.1a.18.18,0,0,1-.11.14l-.08.08a.73.73,0,0,1-.12,0,.11.11,0,0,0-.07,0,.55.55,0,0,1-.17.13s0,0-.07,0,0,0,0,0-.11.08-.14.14,0,.12,0,.18a.44.44,0,0,0-.17.21c0,.05,0,.09,0,.13l0,.08a.2.2,0,0,0,0,.13s0,0,0,.07a.41.41,0,0,1-.1.13.52.52,0,0,0-.12.19.18.18,0,0,1-.18.11,1.54,1.54,0,0,1-.19.17,1.19,1.19,0,0,1-.26.05A.1.1,0,0,0,459,3s0,0-.05,0-.08.1-.08.22a1.15,1.15,0,0,0-.23.1s0,0,0,0a.09.09,0,0,1-.08.06v.11a.92.92,0,0,0-.16.27.35.35,0,0,1-.15.17.33.33,0,0,0-.1.17s0,.09-.06.12a.13.13,0,0,0-.05.12.08.08,0,0,1,0,0,.94.94,0,0,1-.16.2c0,.07-.06.12,0,.2s0,.14,0,.22.06,0,.08,0v0l.09,0a.26.26,0,0,1,0,.28H458a0,0,0,0,0,0,0s0,.08.08.1,0,.15,0,.22a1,1,0,0,1,0,.24s0,0,0,.06a.62.62,0,0,0-.09.29.83.83,0,0,1-.06.21.31.31,0,0,1-.16.18s0,0,0,0v.09a.22.22,0,0,1,.11.1s0,0,.08.08,0,.09,0,.14a.4.4,0,0,0,.35-.1h.14l.31.14s0,0-.05,0l-.13,0a.61.61,0,0,0-.13,0,.15.15,0,0,0-.13,0s-.05,0-.08,0a.28.28,0,0,0-.14.1h-.19s0,.1,0,.15.08,0,.12,0,0,0-.07,0,0,.07.06.08.06,0,.06.07a.05.05,0,0,0,.06.06s0,0,.08,0,.12-.1.19,0-.05,0-.07,0a.17.17,0,0,1,0,.14s.06,0,.08,0l0,0h.09v.16s.06,0,.06.08h.15s0,.06,0,.08h.07s0,.08.06.11.07.07.14.07,0,.09.08.13a.2.2,0,0,1,.08.13.23.23,0,0,0,.11.15s0,0,0,.06a1.11,1.11,0,0,0,.09.19.17.17,0,0,0,.1.06s.05,0,.05.07.08.06.09.11a.33.33,0,0,1,.19.11,1.14,1.14,0,0,1,.11.11.12.12,0,0,0,.1.05c.05,0,.07.08.13.09a.88.88,0,0,0,.32.16.17.17,0,0,0,.18,0s.05,0,.08,0h0a.27.27,0,0,1,.17-.08s0,0,.06,0l.13,0a2.81,2.81,0,0,0,.29,0,.51.51,0,0,0,.17,0,.19.19,0,0,0,.15,0s0,0,0-.06,0,.07.05,0v.06a.6.6,0,0,1,.23.06.07.07,0,0,0,.09,0l.24-.12h.13c.09,0,.14-.12.23-.16a1.33,1.33,0,0,1,.19,0,.22.22,0,0,0,.11-.05.12.12,0,0,1,.13,0,.39.39,0,0,0,.21,0h0c.05,0,.11,0,.17,0a.44.44,0,0,1,.22.07.91.91,0,0,1,.17.17.2.2,0,0,1,0,.18s0,0,0,0,.07.14.13.19h.31s.09,0,.14,0,.09,0,.13,0h.12s.08,0,.09-.06.06,0,.09,0,0,.09,0,.14a.31.31,0,0,0,.19,0v.18s0,.07.07.1a.16.16,0,0,0,0,.09s0,.07,0,.11,0,.06,0,.09a.63.63,0,0,0-.16.24c.06,0,.06,0,.06.09h0s0,0,0,.08l.07,0s0,0,0,0-.06,0-.08.06v.15a.17.17,0,0,1-.12,0,.17.17,0,0,0,.05.18s0,.08.06.11,0,.06,0,.1,0,.06.05.11.13.19.24.24l0,0a.14.14,0,0,0,.07.08s.07,0,.06.08h.06v.07s.07.08.13.1l0,0c0,.06.08.1.05.16s.06,0,.08,0,0,.14,0,.23,0,0,.06,0,.07.23.17.32v.15a.17.17,0,0,0,0,.14s0,0,0,.08-.11.11-.09.2l0,0c0,.06,0,.12,0,.17a.07.07,0,0,1,0,.05.12.12,0,0,0,0,.1.45.45,0,0,1,.1.28.45.45,0,0,1-.09.25l0,0c-.07,0-.1.07-.16.09v.06c0,.07-.11.09-.15.14a1,1,0,0,0,0,.35.2.2,0,0,0-.09.21l-.05,0a.15.15,0,0,0,0,.11v.14a.71.71,0,0,1,0,.2.18.18,0,0,0,0,.14.5.5,0,0,1,0,.22l.08.07a.67.67,0,0,1,.19.28c0,.09.09.18.12.27a.05.05,0,0,0,0,0v.11c.07.05.09.14.15.2a.2.2,0,0,0,.06.16.67.67,0,0,0,.07.11.08.08,0,0,1,0,.12.13.13,0,0,0,0,.12.77.77,0,0,1,0,.15.67.67,0,0,0,.06.28.12.12,0,0,1,0,.08v.08s0,0,0,.07,0,0,0,.06,0,.15,0,.22,0,0,0,0v.16l.05,0v.1a1.13,1.13,0,0,0,.3.38v.07l0,0a.25.25,0,0,1,.11.19s0,.08,0,.13,0,0,0,.07a1.66,1.66,0,0,1,.06.21.26.26,0,0,0,.09.14v.09c.08.06.06.17.1.24s0,.13-.11.09V21s0,0,.05,0a.17.17,0,0,1,.05.14s0,.09,0,.14,0,.05,0,.09h.05c0-.06,0-.06.09-.07a.32.32,0,0,1,0,.09h.07s0,0,0,.06a.26.26,0,0,1,.15.07H468c0-.06.1,0,.1-.1s.09,0,.12,0h0c.07.06.15,0,.21,0a.23.23,0,0,0,.16-.11h.15c.06.05.06.05.12,0a.21.21,0,0,1,.19,0,.29.29,0,0,0,.22,0s0-.06,0-.08a.19.19,0,0,0,.18,0v-.1c.06,0,.11-.05.17,0a.08.08,0,0,0,.1,0l.1,0a.24.24,0,0,0,.1-.05s.07,0,.08-.06.06,0,.09,0,.13-.06.16-.14a.7.7,0,0,0,.16-.13,1.69,1.69,0,0,1,.28-.26l0,0v-.07a.88.88,0,0,0,.24-.33.07.07,0,0,1,.08,0c0-.05,0-.12.09-.16s.09-.07.11-.13l0,0,.08,0,.05-.07a.66.66,0,0,0,.09-.19s0-.07,0-.1,0-.13,0-.19a.53.53,0,0,1,.05-.18.09.09,0,0,0,0-.07s0,0-.08,0,0-.05,0-.05,0,0,0,0,.07-.11.14-.14l.06-.06a.31.31,0,0,1,.13-.06.74.74,0,0,0,.28-.08.79.79,0,0,0,.18-.14c0-.07.06-.09,0-.16h0v0c0-.07,0-.12.05-.18a.09.09,0,0,0,0-.1s.06-.08,0-.14,0,0-.05,0l0,.06a.88.88,0,0,0-.06-.43s0,0,0-.05a.61.61,0,0,0-.09-.13.53.53,0,0,0,0-.18l.19-.05s0-.05,0-.08.12-.1.2-.12.05,0,.06-.06a.27.27,0,0,1,.08-.07.29.29,0,0,0,.1-.12h.07c0-.05.05-.06.05-.1a1,1,0,0,0,.25-.14,0,0,0,0,0,.06,0l.18-.11s0,0,0,0a.7.7,0,0,0,.2-.08s0,0,0-.06.1-.05.12-.12a.16.16,0,0,1,.1-.11v-.12c.07,0,0-.09.08-.1a.25.25,0,0,0,0-.17h0s0,0,0,0v0c0-.11,0-.21,0-.32a.14.14,0,0,1,0-.06.09.09,0,0,0,0-.1,0,0,0,0,1,0,0s0-.08,0-.12a.08.08,0,0,1,0,0s0,0,0-.06a.22.22,0,0,1,0-.08l.05,0v-.24s-.07,0-.11,0L473.9,14a.15.15,0,0,0,0-.12v0c0-.08-.06-.15-.05-.23s0,0,0-.08,0-.16,0-.24,0,0,.06,0v-.17a1,1,0,0,1-.19-.17,1.56,1.56,0,0,0,.11-.41.11.11,0,0,0,.08-.07.83.83,0,0,0,.08-.12s0-.05,0-.07a.17.17,0,0,1,.05-.13.12.12,0,0,0,0-.12l.09-.09h.07s.05-.08.1-.09,0-.05.06-.06.06-.08.1-.11,0,0,0-.05a1.62,1.62,0,0,0,.19-.18c.07-.08.11-.18.21-.23h0a3.61,3.61,0,0,1,.35-.33,1.43,1.43,0,0,1,.26-.23.23.23,0,0,0,.17-.08c.09-.09.19-.15.27-.24l.12-.1a2.83,2.83,0,0,1,.23-.28s0-.05,0-.08l.09-.11c.07-.08.09-.2.16-.27s0-.05,0-.08,0-.09,0-.14.08-.17.15-.24,0-.06,0-.09.06-.06.1-.08a.1.1,0,0,0,.06-.08.21.21,0,0,1,.07-.13s0-.08.08-.09,0-.17,0-.27l.05,0c0-.06,0-.12,0-.16s0-.06,0-.06V7.75C477.13,7.76,477.07,7.71,477,7.74Z"/><path class="cls-2" d="M438.71,7.87H.5a.5.5,0,0,1-.5-.5.5.5,0,0,1,.5-.5H438.71a.5.5,0,0,1,.5.5A.5.5,0,0,1,438.71,7.87Z"/><path class="cls-2" d="M934.35,7.87H496.13a.51.51,0,0,1-.5-.5.5.5,0,0,1,.5-.5H934.35a.5.5,0,0,1,.5.5A.51.51,0,0,1,934.35,7.87Z"/></svg>