<svg id="Pfad" xmlns="http://www.w3.org/2000/svg" viewBox="0 0 397.12 328.83"><defs><style>.cls-1{fill:#c08845;}</style></defs><path class="cls-1" d="M183.58,135.32c.7,1.19,17.31,29.18,37.18,44.47l58.18,50.78.36.29c.1.07.18.15.28.21a5.74,5.74,0,0,0,.73.48,1.83,1.83,0,0,0,.24.13l.56.29.28.12.56.21.29.09.58.16.28.06.64.1.24,0a8.46,8.46,0,0,0,.87,0h0a8.46,8.46,0,0,0,.87,0l.24,0,.64-.1.27-.06.59-.16.28-.09c.2-.07.39-.14.57-.22l.27-.11a6.54,6.54,0,0,0,.59-.3,2.39,2.39,0,0,0,.22-.12,6.54,6.54,0,0,0,.73-.48c.09-.06.18-.14.27-.21l.37-.29L349,179.79c19.86-15.29,36.48-43.28,37.18-44.47a8.74,8.74,0,0,0,.5-1c14.89-34.09,7-58.18-2.18-72.4a70.5,70.5,0,0,0-24.22-22.83c-.21-.11-.43-.22-.65-.31-30.32-12.66-51.39-4-63.72,5.58a66.8,66.8,0,0,0-11,10.87,66,66,0,0,0-11-10.87c-12.33-9.53-33.39-18.24-63.71-5.58-.22.09-.44.2-.66.31A70.52,70.52,0,0,0,185.26,62c-9.21,14.22-17.07,38.31-2.18,72.4A8.74,8.74,0,0,0,183.58,135.32Zm33.88-80c17.52-7.21,32.62-6.2,44.88,3a50.35,50.35,0,0,1,14.29,17.27l.09.17c.07.15.15.3.23.45a4,4,0,0,0,.2.35,4.25,4.25,0,0,0,.25.39l.24.35c.09.12.18.24.28.35s.18.23.28.33l.3.32.32.3.33.28.35.28.35.24.39.25.36.2L281,80a1.51,1.51,0,0,0,.18.09l.19.08.45.17.4.13.44.12.42.1.43.07.44,0c.14,0,.29,0,.44,0l.42,0,.47,0,.4,0a3.78,3.78,0,0,0,.47-.06l.39-.06.46-.11.41-.11.41-.14.45-.17.17-.07a1.11,1.11,0,0,0,.19-.09l.45-.22.35-.2.4-.25.34-.25.36-.28c.11-.09.22-.18.32-.28s.22-.2.33-.31l.3-.31.29-.34c.09-.11.18-.22.26-.34s.17-.23.26-.36l.24-.38c.07-.12.14-.24.2-.36s.15-.29.22-.44.07-.12.1-.19c.68-1.54,17.12-37.5,59.15-20.24,3.87,2.17,38.81,23.3,18.12,71.37-2.14,3.51-16.66,26.89-32.57,39-.16.12-.31.25-.46.38l-52.48,45.8L232.38,166c-.15-.13-.3-.26-.46-.38-15.91-12.14-30.44-35.53-32.57-39C178.61,78.44,213.77,57.32,217.46,55.27Z" transform="translate(-0.39 -32.5)"/><path class="cls-1" d="M391.39,260.22c-7.92-13.74-24.71-13.4-33.54-11a8.58,8.58,0,0,0-1.76.69l-33,17.13c-4.94-10.76-16.87-15.83-25.9-16.61H297l-29.87-1.94c-9.54-.58-14.18-1.76-15.61-2.19l-22.31-14c-23.58-16.5-46.2-14.66-51-14-43.29.28-80.55,27.86-82.12,29-.12.09-.25.18-.36.28A15.64,15.64,0,0,1,92,250a16.9,16.9,0,0,0-11.47-4.49H17.39a17,17,0,0,0-17,17v79.11a17,17,0,0,0,17,17H80.5A17,17,0,0,0,97.31,344l158,16.68a71.91,71.91,0,0,0,9.22.65c8.58,0,13.49-2.05,16.29-4.54l107.43-59a9.05,9.05,0,0,0,2.61-2.16C402.35,281.71,396.55,266.86,391.39,260.22Zm-373,80.35v-77.1H79.5v77.1ZM377.86,283,270.91,341.68a9.05,9.05,0,0,0-1.68,1.18c-1,.29-4.32.92-11.7-.05l-.24,0L97.5,325.91v-58.8a31.44,31.44,0,0,0,9.5-5.54c2.48-1.8,35.64-25.34,71.85-25.34a9.12,9.12,0,0,0,1.56-.13c.19,0,18.91-2.86,38.65,11,.12.09.25.17.38.25l23.34,14.7a9.24,9.24,0,0,0,1.07.58c1.48.67,7.42,2.92,22.17,3.81l29.68,1.93a21.77,21.77,0,0,1,7,2.2c3.66,2,5,4.48,4.66,8.62-.31,3.72-.56,6.69-8.29,9H227.69a9,9,0,0,0,0,18h72.63a8.56,8.56,0,0,0,2.36-.32c15.25-4.15,20-12.79,21.68-19.24l39-20.25c2.48-.47,10.2-1.53,12.6,3a6.87,6.87,0,0,0,1.09,1.62C378.24,272.61,381.41,277.48,377.86,283Z" transform="translate(-0.39 -32.5)"/><path class="cls-1" d="M61.7,271.78a9,9,0,0,0-9,9v11.35a9,9,0,0,0,18,0V280.78A9,9,0,0,0,61.7,271.78Z" transform="translate(-0.39 -32.5)"/></svg>