<svg id="Pfad" xmlns="http://www.w3.org/2000/svg" viewBox="0 0 395.82 355.63"><defs><style>.cls-1{fill:#c08845;}</style></defs><path class="cls-1" d="M397.12,362.57l-21.95-56.51a9,9,0,0,0-8.39-5.74H175.7a9,9,0,0,0-8.43,5.86L146.4,362.26a9,9,0,0,0,8.42,12.14l233.89.43h0a9,9,0,0,0,8.39-12.26Zm-229.34-6.15L182,318.32H360.62l14.95,38.49Z" transform="translate(-1.91 -19.2)"/><path class="cls-1" d="M342.37,162.66a9,9,0,0,0,12.23-3.53l9.82-17.81a9,9,0,0,0-15.76-8.7l-9.82,17.81A9,9,0,0,0,342.37,162.66Z" transform="translate(-1.91 -19.2)"/><path class="cls-1" d="M357.87,191.73a9,9,0,0,0,8.47,6,8.84,8.84,0,0,0,3.05-.54l19.14-6.87a9,9,0,0,0-6.09-16.94l-19.14,6.87A9,9,0,0,0,357.87,191.73Z" transform="translate(-1.91 -19.2)"/><path class="cls-1" d="M361.5,220.72a9,9,0,0,0-8.34,15.95l18,9.42a8.89,8.89,0,0,0,4.16,1,9,9,0,0,0,4.17-17Z" transform="translate(-1.91 -19.2)"/><path class="cls-1" d="M208.9,200.55l-9.36,43.37a9,9,0,0,0,12.11,10.27l132.41-52.38a9,9,0,0,0,2.29-15.42l-34.11-27.13L278.3,73.47l9.35-43.37a9,9,0,0,0-12.11-10.27L143.13,72.21a9,9,0,0,0-2.29,15.42L175,114.76l5.78,14.63L24.39,187.5a34.49,34.49,0,1,0,24,64.65l.42-.17L203,185.6Zm11.79,30.71,5.55-25.74,77-30.44L323,190.79Zm2.37-43.84-28.9-73.06,70-27.69,28.9,73.06ZM266.51,42.76l-5.58,25.83L184.06,99,164.22,83.23ZM42,235.35a16.49,16.49,0,0,1-11.3-31l156.71-58.24,9,22.73Z" transform="translate(-1.91 -19.2)"/></svg>