<svg id="Ebene_1" data-name="Ebene 1" xmlns="http://www.w3.org/2000/svg" viewBox="0 0 217.94 240.68"><defs><style>.cls-1{fill:#fff;}</style></defs><path class="cls-1" d="M82.68,1.72h.2a2,2,0,0,0,.34,0l.27,0a2.06,2.06,0,0,0,.23.31,2,2,0,0,0,1,1.4,1,1,0,0,1,0,.1L84.32,4l.18.77a3.63,3.63,0,0,0,1.16,1.86l.2.19.31.34h0l0,.12a4.85,4.85,0,0,1,.13.93,4.74,4.74,0,0,1-1.07.89,3.09,3.09,0,0,0-1.8,2.11l0,.23,0,.24a4,4,0,0,0,2.18,2.83,4.67,4.67,0,0,1,.75.53l1.69,1.6L88.3,16a5.14,5.14,0,0,0,1.6.27,3.53,3.53,0,0,0,1.39.73l.18.06a3.39,3.39,0,0,0,1.11.2A2.61,2.61,0,0,0,93.75,17h.41l.27,0a7.44,7.44,0,0,1,1.16.14,9.57,9.57,0,0,0,1.59.17h.15a5,5,0,0,0,2.77.93v1.23l.46.41.09.22a3.38,3.38,0,0,0,.18.44,4.06,4.06,0,0,0,1.39,1.66,3.1,3.1,0,0,0,1.78.67,2.43,2.43,0,0,0,1.24-.35l.09,0,.67.23a12.77,12.77,0,0,1,2,.76l.3.16a8,8,0,0,1,2.19,1.42,5,5,0,0,0,3,1.59l.83.1.53-.65a8.61,8.61,0,0,1,.74-.75,6.49,6.49,0,0,0,1.76-2.27l.26-.68-.33-.62s-.06-.17-.09-.26a3.58,3.58,0,0,0-.43-.95V19.08l.44-.43v-.74a3.51,3.51,0,0,1,2-.68,3.61,3.61,0,0,0,1.54-.51,4.26,4.26,0,0,1,.51.09,5.33,5.33,0,0,0,1.17.16h.13a3.18,3.18,0,0,1,.54.1,4.4,4.4,0,0,0,1.13.2l.24.16a2.15,2.15,0,0,0,1.39,1.35l.13,0a4,4,0,0,0,1.28.29l0,.05.43.43h.6a9,9,0,0,1,1.2.14c.43.07.87.13,1.34.16h0l.29.57.34.7.77.12a3.91,3.91,0,0,0,.61,0h.81a5.8,5.8,0,0,0,2.38.52,5.27,5.27,0,0,0,.68,0h.19a2.26,2.26,0,0,1,1,.24,5.17,5.17,0,0,0,1.87.48l.45.63.86-.09a6.45,6.45,0,0,1,.71,0,2,2,0,0,1,1.3.35,2.11,2.11,0,0,0,1.27.42,3.42,3.42,0,0,0,.57-.06H145l.65-.07.4-.52a3,3,0,0,1,1.25-.77c.22-.1.45-.2.68-.32H151l.37-.37h0l.16.05a1.93,1.93,0,0,0,1.32,1.21l.79.24.47-.4a2.1,2.1,0,0,0,.85.17h.16a3.93,3.93,0,0,0,1.06-.32l.15-.06a5.4,5.4,0,0,0,1.79.23l.62,0,.76.06a5.11,5.11,0,0,0,.72,1.39l0,.06a3.16,3.16,0,0,1,.8,2.2,1.89,1.89,0,0,0,.18,1.24l-.06.17a3.83,3.83,0,0,0-.27.93,9.41,9.41,0,0,1-.24,1,11.5,11.5,0,0,0-.32,1.45,2.36,2.36,0,0,0-.44-.36,1.92,1.92,0,0,0-.41-.19l-.06,0-.21,0h-.07l-.23,1.49v0h0l-1.47-.31a1.87,1.87,0,0,0,0,.89l-.79.63,1.12,1.11v0a2.53,2.53,0,0,0,.67.91c.37.31.51.78.67,1.66a5.81,5.81,0,0,0,1.28,3,4,4,0,0,1,1.1,1.9,1.93,1.93,0,0,0,.82,1.32,3.37,3.37,0,0,1,.81,1.08c.1.17.2.34.31.51a2.38,2.38,0,0,0,.92,1.48l0,.64c0,.25,0,.49,0,.73a4.51,4.51,0,0,0,.4,2.44l.08.15.12.13.56.61.45.49.45.49h1a4,4,0,0,0,.55.47l.18.14.75.75.35.35.35.35.2,0a3.47,3.47,0,0,0,.13.48c0,.09.06.19.1.29l.13.35a4.54,4.54,0,0,0,.34,2.22c0,.11.08.22.11.33a9.4,9.4,0,0,1,.51,2.42,1.67,1.67,0,0,0,0,1.58,3.37,3.37,0,0,1,.18.56A3.41,3.41,0,0,0,173.6,65a2.83,2.83,0,0,0,.35.29,1.9,1.9,0,0,0,.09.29l.48,1.34.81-.24v.41l.78.42a1.57,1.57,0,0,1,.27.57c.08.21.18.46.3.71a7.81,7.81,0,0,1,.45,1.22,12,12,0,0,0,.45,1.31,2,2,0,0,1,0,.32,5,5,0,0,0,.13.83,6.07,6.07,0,0,0,.22.68,2.49,2.49,0,0,1,.12.36,3.1,3.1,0,0,0,.84,1.6,2.69,2.69,0,0,0,.19,1.12l.21.48.46.24a1.88,1.88,0,0,0,.91.24,2.23,2.23,0,0,0,.4,0l.42.55h1.78a3.39,3.39,0,0,0,1.41,1.09,3.45,3.45,0,0,0,.26.28c.11.1.22.2.34.29l.18.16a4.14,4.14,0,0,0,1.77,1.82,4,4,0,0,1,.48.33h0a2.55,2.55,0,0,0,1.1,1.59,3.11,3.11,0,0,0,0,.32l-.44.51-.07,0a2.12,2.12,0,0,0-.94,1.58l0,.1a2.74,2.74,0,0,0-.23,1.4,2.23,2.23,0,0,1-.45,1.36l-.56.92.69.83.18.2.18.22.86,1.09L189.2,91l.21-.07a3.33,3.33,0,0,0,1-.48h1.45l.44-.45h0a9.39,9.39,0,0,0,.68.71,2.89,2.89,0,0,1,.62.73l.31.69.62.13.09.1a3.75,3.75,0,0,0,.57.5l.38.27H198l.39-.3a2.67,2.67,0,0,0,.48-.46,3.32,3.32,0,0,0,1.59-.86,1.7,1.7,0,0,0,.78.19,1.89,1.89,0,0,0,.66-.13,3.19,3.19,0,0,0,1,.15,2.9,2.9,0,0,0,1.72-.56,7.89,7.89,0,0,1,1.12-.67h1.7a2.82,2.82,0,0,0,1.69-.48h.24l.13,0a3,3,0,0,0,.77.11,2.25,2.25,0,0,0,.68-.11h.45a2.79,2.79,0,0,0,1-.17l.35-.13.25-.28a.43.43,0,0,1,.38-.19h.11l.42,0a3.85,3.85,0,0,0,1-.13l1.39,1.71a.91.91,0,0,1,0,.17v.06l-.7.51.21,1a2.45,2.45,0,0,1-.09.92,9,9,0,0,0-.16,1,3.18,3.18,0,0,0-.35.6,4.14,4.14,0,0,0-1.23,2.12l0,.08a3.69,3.69,0,0,0-.91.72,1.19,1.19,0,0,1-.16.16l-1.32.91.73,1a7.09,7.09,0,0,0-.54,1.06,2.68,2.68,0,0,1-.49.85l-.47.4,0,.52s-.05.08-.07.13a2.71,2.71,0,0,0-.45,1.63,7.18,7.18,0,0,0-1.09,1.78,4.39,4.39,0,0,1-.64,1.11c-.29.32-.55.65-.8,1l-.28.36a2.29,2.29,0,0,0-.44,1,23.31,23.31,0,0,0-2.08,2.43l-.5.64a2,2,0,0,1-.34.25,5,5,0,0,0-.87.71,12.3,12.3,0,0,1-1.39,1.26,18.82,18.82,0,0,0-1.59,1.43,1.14,1.14,0,0,1-.81.39h-.44l-.37.23a15.1,15.1,0,0,0-2.82,2.41l-.38.38c-.49.5-1,1-1.58,1.45a23.19,23.19,0,0,0-2.34,2.23,6.22,6.22,0,0,0-2.1,2.08c-.18.25-.35.49-.52.69a9.33,9.33,0,0,1-1.87,1.81l-.54.36-.11.64v0c-.14.16-.24.31-.33.43l-.12.16a1.84,1.84,0,0,0-.9.83,2.8,2.8,0,0,0-.92.76h-.71l-.44.44-.91.9-.09.1-.51.5.08.72s0,.07-.12.22l-.08.09a3.08,3.08,0,0,0-.84,2.21l0,.06-.13.17a13.65,13.65,0,0,0-.8,1.26l-1.13.22v1.25a7.61,7.61,0,0,1-.68,2.7c-.17.47-.35,1-.51,1.46l-.26.89.67.64c.18.16.34.34.51.51a10.43,10.43,0,0,0,1.18,1.09v.11a2.85,2.85,0,0,0-.26.28l-.38.37-.05.58a6.23,6.23,0,0,0,.17,1.74,4.81,4.81,0,0,1,.12.75,1.84,1.84,0,0,0-.06,1.69,5.25,5.25,0,0,0,.35,1.27,2.9,2.9,0,0,1,.17.55,1.67,1.67,0,0,0,.45,1.48,1.58,1.58,0,0,1,0,.31v.72l.44.45.44.44.8.82.7.7h0v.68l0,0-.44.44v.79a4.46,4.46,0,0,0,0,.53,2.18,2.18,0,0,0-.21.64,2.4,2.4,0,0,0,.25,1.38l.09.17a2,2,0,0,0,.12,1.73,2.64,2.64,0,0,0-.23,1.28,5.61,5.61,0,0,1-.12,1.3,9.17,9.17,0,0,0-.16,1.73,1.56,1.56,0,0,0-.19.94,1.63,1.63,0,0,0,.84,1.21,1.06,1.06,0,0,0-.15.28l-.75,0v1.91A3,3,0,0,0,180,176a2.3,2.3,0,0,1-.33.25c-.13.09-.26.18-.38.28l-.54.41,0,.39-.08,0a3,3,0,0,1-1,.42l-.87.11-.32.77-.65.41-.29-.52-1.35.91-.37.25a6.21,6.21,0,0,1-1.91,1l-1,.25-.07.81-.05.05H170l-.41.82c-.22.44-.35.66-.54.77l-.09.06a3,3,0,0,0-1.17,1,2.07,2.07,0,0,0-.5.39,5.85,5.85,0,0,0-1.38.84,3.21,3.21,0,0,1-.56.39l-.72.35-.11.71-1.09.32-1,.29-.05,1.08a6.06,6.06,0,0,1-.36,1.51l0,.1-.29.87.65.65c.13.14.25.29.35.42a1.47,1.47,0,0,0,0,.75l0,.28.16.24a4.58,4.58,0,0,1,.43,2.56,15,15,0,0,0,.06,1.61l.22,2.43a4.12,4.12,0,0,0-.28,1.67,2.21,2.21,0,0,0,.11.53l0,.19a2.34,2.34,0,0,0-.22.68,5.21,5.21,0,0,1-1.14.89,9.14,9.14,0,0,1-2.54.72l-.18,0a4.05,4.05,0,0,0-2.18,1l-.19.19-.13.13a3.79,3.79,0,0,0-2.16,2,1.84,1.84,0,0,0-.61,1.43l0,.94.41.18a.61.61,0,0,0,.05.12l.21.42.17.1a8.17,8.17,0,0,0-.25,1c0,.15-.05.29-.09.44-.07.32-.15.65-.22,1l-.24,1-.06.08a2.82,2.82,0,0,0-.48,1.24c-.13.34-.52,1.19-.68,1.48s-.25.31-.36.46l-.1.14-.09,0-.36.16a1.76,1.76,0,0,0-1.12.85.83.83,0,0,1-.15.11,3,3,0,0,0-1.11,1.24,3.7,3.7,0,0,0-.8,1.32,2.55,2.55,0,0,0-1.09,1.07c-.2.32-.37.65-.55,1a6,6,0,0,1-1.66,2.22l-.66.45v.69a36.18,36.18,0,0,0-3.15,2.91,5,5,0,0,0-.39.41,3.6,3.6,0,0,1-.95.83l-.59.27-.21.61c0,.11-.38.28-.63.4s-.32.16-.47.25a2.18,2.18,0,0,0-.46.33l-.95-.13-.2.91a2.36,2.36,0,0,0-.57.41,1.77,1.77,0,0,1-.42.18l-.26.1-.22.06a3.39,3.39,0,0,0-1,.39,2.83,2.83,0,0,0-1.13-.24,4.12,4.12,0,0,0-1.71.46l-.07,0-.88.4v.14l-.27-.21-.8.29a1.88,1.88,0,0,0-1,.77L128,237l-.29-.12a4.65,4.65,0,0,0-1.78-.41,3,3,0,0,0-1.38.32l-.26-.21h-3.16l-.43.78c-.07.14-.53.29-.83.39l-.13,0-.32.12a3.13,3.13,0,0,1-.62.18,1.75,1.75,0,0,0-1.08-.35,2.14,2.14,0,0,0-1,.28h-.08a2.47,2.47,0,0,0-1.23.3l-.74.4v.23a3.34,3.34,0,0,0-.4.26,4,4,0,0,0-.87-.47,1.73,1.73,0,0,0-.69-.76l-.35-.21h-.22l-.43-1.21-.81.17a1,1,0,0,1,0-.17,3.17,3.17,0,0,0-1-2.63,2.85,2.85,0,0,0,1-1.47,1.18,1.18,0,0,1,.07-.2l.33-.74-.44-.69a3.53,3.53,0,0,1-.16-.57,4.34,4.34,0,0,0-.77-1.89v-1l-.43-.44c-.44-.45-.54-.57-.56-.76a10.8,10.8,0,0,0-.49-1.81c-.09-.25-.17-.5-.25-.75a2.09,2.09,0,0,0-.16-.4,3.2,3.2,0,0,0-.26-1.52c0-.09-.06-.17-.08-.25a5.1,5.1,0,0,0-1.64-2.81v-.85l-.69-.44a8.11,8.11,0,0,1-2.34-2.86l-.37-.62v-1.27l-.44-.44-.06,0v-2.26l-.6-.16v0c-.08-.36-.16-.72-.26-1.09a1.61,1.61,0,0,0-.06-1.38,1.92,1.92,0,0,0,0-.34,4.82,4.82,0,0,1,0-.66,3.54,3.54,0,0,0-.38-1.71,7.53,7.53,0,0,1-.59-2.56c0-.14,0-.27,0-.4a4.24,4.24,0,0,0-.28-1.73l0,0a2.6,2.6,0,0,0-.45-3.12s-.11-.19-.17-.29a3.94,3.94,0,0,0-.61-.92.65.65,0,0,1-.18-.62l.09-.76L98,193.5a3.19,3.19,0,0,1-.52-.72,6.87,6.87,0,0,0-.71-1V190.6l-.35-.36a22.58,22.58,0,0,0-1.26-2.91l-.13-.25-.19-.39a8.52,8.52,0,0,0-2.33-3.27,3.29,3.29,0,0,1-.31-.26,4.42,4.42,0,0,0-.5-2.59.35.35,0,0,1,0-.3,5.72,5.72,0,0,0,.27-2.06c0-.19,0-.38,0-.56a16.44,16.44,0,0,0,0-1.72l.05-.08.09,0,.24-.15.81-.55-.18-1c-.07-.35-.07-.48.45-.91l.64-.54-.12-.83a9.22,9.22,0,0,1,.16-2.91l.13-.09a3.94,3.94,0,0,0,1.47-1.51l.16-.32v-.2l.26-.23.21-.17,1,0,.31-1.06,0-.11A6.09,6.09,0,0,0,99,161.5a7.17,7.17,0,0,0-1.35-3.9,2.26,2.26,0,0,1-.13-.2,2,2,0,0,0-.47-1.62,2.73,2.73,0,0,1,0-.53c0-.11,0-.22,0-.32v-.62l-.42-.41c.07-.1.16-.22.23-.3a6.44,6.44,0,0,0,.44-.61l.56-.79-.55-.82a.37.37,0,0,1,0-.11,2.51,2.51,0,0,0-.69-1,1.71,1.71,0,0,1,0-.35c0-.42,0-.83,0-1.25v-1.14l-.47-.44-.17-.16c-1-1-1.43-1.41-1.3-2.08l.14-.78-.56-.56-.2-.17a3.39,3.39,0,0,0,0-2.07,1.83,1.83,0,0,0-.91-1,4.11,4.11,0,0,0-.38-.68l-.06-.09a1.85,1.85,0,0,0-1.29-1.5,3.87,3.87,0,0,1-.29-.29l-.07-.08v-1.52l-1.08-.1a3.1,3.1,0,0,0-.91-.76l0,0-.08-.05-.15-.08a2.1,2.1,0,0,0-1.08-1.15,3.46,3.46,0,0,1-1.17-1.16c-.24-.31-.5-.64-.8-1a3.56,3.56,0,0,0-.43-.78l0,0a3,3,0,0,0-.8-1.84l0-.06a3.13,3.13,0,0,0-.46-1L84,128l.92-.39v-1.9a1.85,1.85,0,0,0,1-.79l.78-1.16-.93-.72.1-.18,0-.46a2.63,2.63,0,0,0-.39-1.34,3.94,3.94,0,0,1,.86-1l.89-.72-.32-.73a2,2,0,0,0,0-1.29v-.15a3.87,3.87,0,0,0,0-.66l.1-.2.53-.91-.72-.79s-.05-.1-.08-.15a3.88,3.88,0,0,0-.36-.58v-3.07l-1.66.18-.3,0h-.21a2.49,2.49,0,0,0-.87-1.57l-.33-.28-.42-.06-.29,0-1.57-2L80,109.51h0a5.09,5.09,0,0,0-.54,0,2.21,2.21,0,0,0-1.08.25H78a2.19,2.19,0,0,0-1.21.33h-.27L76,110h-.15c-.47,0-.94,0-1.41,0H73.06c-.34-.32-.5-.5-.49-.64l0-1.43-.51,0a4.5,4.5,0,0,0-.7-1.6A8.28,8.28,0,0,0,69,104a5.54,5.54,0,0,0-3-1l-.39,0-.35,0-.43,0h0a1.75,1.75,0,0,0-1-.32,2.2,2.2,0,0,0-1.07.29,2,2,0,0,1-1.08.23h-.7a3.23,3.23,0,0,0-2.33.91l-.21.06-.35.11c-.2.06-.43.1-.69.15a6.35,6.35,0,0,0-1.69.51,8.23,8.23,0,0,0-1.58,1.08c-.27.21-.52.42-.78.59H51.89l-.32.15-.8.39c-.58.28-1.13.55-1.68.84a6.61,6.61,0,0,0-1.74-.55l-.21-1.74-1.08.6-.08,0-.73-.34-.68.42a2.19,2.19,0,0,0-.46.37l0,0-.51-.32-.58.11c-.34.07-.63.15-.89.22a2.41,2.41,0,0,1-.68.15h0l-1.13,0H38A5.17,5.17,0,0,0,37,107a2.63,2.63,0,0,1-.38.07,1.8,1.8,0,0,0-1.37.67,4.29,4.29,0,0,0-1.8.81,2.43,2.43,0,0,0-1.39.64l-.06,0a.53.53,0,0,1-.35.13.47.47,0,0,1-.17,0,12.23,12.23,0,0,0-1.24-.49,4.13,4.13,0,0,1-1.84-1l-.33-.38-.36-.08-.1-.09a2.55,2.55,0,0,0-1.59-.87l-.21-.2-.35-.36a10.44,10.44,0,0,0-.95-.92l-.16-.13a6,6,0,0,0-1.94-1.22,3.63,3.63,0,0,0-.58-.63,2,2,0,0,0-1.9-1.68h0a8.24,8.24,0,0,1-.75-1.65A2.47,2.47,0,0,0,17.76,98c-.06,0-.16-.06-.31-.64A3.91,3.91,0,0,0,16,95.06l-.24-.2.14-1.59-1.62.06-.15-.13a3.49,3.49,0,0,0-.58-.43,2.48,2.48,0,0,0-.25-.65l-.43-.76h-.42a1.83,1.83,0,0,0-.41-.55l-.43-.39H10.17V87.76H8.64l0-.06-.16-.08,0,0,.67-.94-.74-.89a2.27,2.27,0,0,0-1.78-.9,2.6,2.6,0,0,0-1.23.34A2.3,2.3,0,0,0,5,85a2,2,0,0,0-.47-.93l.78-.9L5.12,83l.1-.12a1.66,1.66,0,0,1,.71-.57h.24a2.06,2.06,0,0,0,1.06-.27A.71.71,0,0,1,7.44,82a4.06,4.06,0,0,0,.9.24l.3.06a4.45,4.45,0,0,0,1.13.43,4,4,0,0,1,.47.14,2,2,0,0,0,.83.18,1.81,1.81,0,0,0,1.8-1.83l.05-1-.84-.44A35.6,35.6,0,0,0,8.49,78.2l-.27-.11H5.79l-.44.45a2.54,2.54,0,0,1-1.71.75l.13-.87L3,77.89l-.37-.24a.93.93,0,0,0-.05-.1,4,4,0,0,0-.59-.86,5.73,5.73,0,0,0,1.69-2.24,8.87,8.87,0,0,0,.78-2.86,4.42,4.42,0,0,1,.71-2.41l0-.06a2.47,2.47,0,0,0,.66-1.48l0-.43a9.88,9.88,0,0,0-.1-2.58l-.12-.58c-.13-.62-.25-1.2-.34-1.8l-.09-.73-.3-.17v0a4.32,4.32,0,0,0-.36-4.61l-.41-.55-.24,0v-.4l-.75,0a3.23,3.23,0,0,0,0-1.08l.12-.26a3.66,3.66,0,0,0,.4-1.14A7.33,7.33,0,0,0,4.63,52a4.71,4.71,0,0,1,.47-.66,2,2,0,0,0,.5-1.46,1.51,1.51,0,0,1,.17-.19,3.78,3.78,0,0,0,1-1.8l0-.17c.2-.66.32-1,.59-1.16a5.27,5.27,0,0,0,2.26-2.77,4.58,4.58,0,0,1,.79-1.43,11,11,0,0,0,.81-1.26l.18-.34v-.57a2.75,2.75,0,0,0,.74-.93q.38-.18.69-.36A3.89,3.89,0,0,1,14,38.42l1.23-.19,0-1.25a1.72,1.72,0,0,1,.5-1.41l.07-.11,0,0a2,2,0,0,0,.8-1.08,11.6,11.6,0,0,0,1.6-.32l.79-.19.44-.09.32-.32a6.71,6.71,0,0,1,.72-.58A9.66,9.66,0,0,0,21.61,32a3.4,3.4,0,0,0,2.74-2.18,4.33,4.33,0,0,1,1-1.58l.05,0a4.92,4.92,0,0,0,1.45-2.06l.1-.3,0-.32a1.91,1.91,0,0,0-.48-1.07v0l.65-.64-.57-1-.12-.23-.15-.25V22c0-.11,0-.25,0-.29a3,3,0,0,1,1.28-1.62l.67-.34.13-.75a3.53,3.53,0,0,0-.17-1.62h0l.06,0a3.65,3.65,0,0,0,1.08-.93,2.67,2.67,0,0,0,1-.56l.06,0a6.4,6.4,0,0,1,.57-.36,5.42,5.42,0,0,0,1.53-1.15A4.32,4.32,0,0,0,34,13.74a2.49,2.49,0,0,1,.28-.15,2.79,2.79,0,0,0,.92-.8l.06-.06A3.67,3.67,0,0,0,37,10.28a5.72,5.72,0,0,0,.15-.77c0-.08,0-.19,0-.25l.1-.14a3.25,3.25,0,0,0,.56-1.06A4.31,4.31,0,0,0,38,7.23l1.33,1.33.44.43h.62l.21,0a5.65,5.65,0,0,0,.59,0,2.6,2.6,0,0,0,1.13-.25.68.68,0,0,1,.39-.07l.4,0,.55,0h.42a4.29,4.29,0,0,0,1.19-.16l.16.15,0,.05.44.44h.62a4.71,4.71,0,0,0,.53,0h.31a2.9,2.9,0,0,0,1,.17,4.5,4.5,0,0,0,.8-.08l.16,0a3.87,3.87,0,0,0,2.92-1.94h0A3.36,3.36,0,0,0,54,6.76l.7.58,1-1L56,6l.17-.17.14-.14.09-.17a1.09,1.09,0,0,0,.08-.15h.19a2.34,2.34,0,0,0,.47-.05l.25,0,.22-.14a10.51,10.51,0,0,0,1.47-1h.68a4.84,4.84,0,0,0,1.61-.24,2.87,2.87,0,0,0,1.07.24l.34,0,.46-.07.34-.32,0,0,0,0h3.48l-.2-.47h1.53a2.21,2.21,0,0,0,1.21.7l.94.23.53-.7h.42l.47,0,.4-.25c.2-.13.39-.27.58-.41l.19-.13a1.65,1.65,0,0,0,.85.48l.15,0H76l.35-.36a2.13,2.13,0,0,0,1.26.41,2,2,0,0,0,.9-.21A1.16,1.16,0,0,1,79,3h.64a5.87,5.87,0,0,0,.85-.06l.5-.09.34-.37a1.77,1.77,0,0,1,1.36-.72M216.44,88.19v.58l-1.12.24a3.56,3.56,0,0,0,1.12-.82M84.42,0h-1c0,.21-.11.26-.23.26l-.2,0a2,2,0,0,0-.34,0,3.28,3.28,0,0,0-2.46,1.2,3.81,3.81,0,0,1-.59,0H79a2.44,2.44,0,0,0-1.18.23.59.59,0,0,1-.23.05.75.75,0,0,1-.53-.25,1.52,1.52,0,0,0-1-.52h0l-.71.72h-1c-.25-.06.09-.59-.16-.59h0A1.83,1.83,0,0,0,73.49,1c-.75,0-1.23.56-1.87,1h-.31A1.55,1.55,0,0,0,70,2.44c-.44-.1-.56-.37-.65-.75H66.84a2.13,2.13,0,0,1-1.1-.24.45.45,0,0,0-.2,0c-.12,0-.25,0-.35,0-.21.24-.51.36-.36.72H63l-.52.49h-.11c-.38,0-.73-.3-1.09-.3a.66.66,0,0,0-.27.06,3,3,0,0,1-1.32.24l-.75,0a5.63,5.63,0,0,0-.58,0,6.15,6.15,0,0,1-1.61,1.21h-.15c-.16,0-.35,0-.56,0a1.13,1.13,0,0,0-.84.32c-.19.12,0,.34-.16.6l-.52.52A1,1,0,0,0,53.93,5a.86.86,0,0,0-.62.3,1.69,1.69,0,0,1-1.13.48A1.31,1.31,0,0,0,51,6.47a2.36,2.36,0,0,1-1.9,1.31,4.84,4.84,0,0,1-.73.09,1.38,1.38,0,0,1-.54-.1,1.27,1.27,0,0,0-.48-.07c-.27,0-.56,0-.83,0a2.23,2.23,0,0,1-.34-.35c-.26-.44-.37-.63-.55-.63s-.31.11-.62.32a2.7,2.7,0,0,1-1.18.19h-.19c-.32,0-.63,0-1,0a2.3,2.3,0,0,0-1.07.23,1,1,0,0,1-.45.09c-.28,0-.56-.06-.8-.06-.48-.49-.93-.94-1.5-1.5V5.1l-.25,0a3.49,3.49,0,0,0-2.1,1,7.91,7.91,0,0,1-.12,1.59c-.1.39-.49.69-.62,1.07s-.11.73-.22,1.11a2.13,2.13,0,0,1-1.16,1.58c-.34.16-.53.64-.88.81a4.66,4.66,0,0,1-1.32.6,1.26,1.26,0,0,0-.8.38c-.51.68-1.32.92-2,1.41a1.22,1.22,0,0,1-.72.37h-.18a.29.29,0,0,0-.31.18c-.23.85-1.25.9-1.6,1.62s.3,1.26.18,2a4.44,4.44,0,0,0-2,2.36c-.24.53-.08,1-.2,1.4.19.33.34.59.52.92-.43.42-.22,1-.29,1.5.11.29.46.36.5.67a3.69,3.69,0,0,1-1.11,1.48A5.83,5.83,0,0,0,23,29.21a1.93,1.93,0,0,1-1.89,1.28h-.18a16,16,0,0,1-2.14,1.9A13.79,13.79,0,0,1,16,32.9h-.13c-.3.28-.67.48-.67,1,0,.22-.37.34-.54.59-.84,1.19-.87,1.16-.91,2.43A12.28,12.28,0,0,0,11.2,38c-.15.06-.25.26-.33.45a1.06,1.06,0,0,1-.95.73v1.16c-.58,1.09-1.43,1.85-1.74,3a3.92,3.92,0,0,1-1.69,1.94,3.35,3.35,0,0,0-1.13,1.94,2.77,2.77,0,0,1-.63,1.31,1.72,1.72,0,0,0-.62,1.32.52.52,0,0,1-.14.42C3.36,51,3,52,2.18,52.56c.25.83-.67,1.41-.5,2.28s-.47,1.58-.17,2.43a.36.36,0,0,0,.24.1c.22,0,.42-.2.64-.2h0v.26c.11.13.11.13.95.18a2.9,2.9,0,0,1,.19,3.11H3a.44.44,0,0,0-.1.55c.41.33.45.92.9,1.18.11.86.31,1.67.47,2.48a11.08,11.08,0,0,1,0,2.64,1.39,1.39,0,0,1-.39.68,5.69,5.69,0,0,0-1,3.2,7.4,7.4,0,0,1-.66,2.39,3.91,3.91,0,0,1-1.8,2c-.16.08-.21.34-.45.34H0v1c.81.45.89.52,1.21,1.1s.24.45.93.9c-.07.52.28,1,.35,1.6a6.56,6.56,0,0,0,.76,0,4.22,4.22,0,0,0,3.17-1.21H7.93a35.5,35.5,0,0,1,3.45,1.56c0,.32-.17.4-.31.4a.71.71,0,0,1-.23,0c-.48-.21-1-.27-1.47-.51s-1-.19-1.42-.4a1.19,1.19,0,0,0-.47-.09,2.07,2.07,0,0,0-1,.28.66.66,0,0,1-.32.07h-.3a.78.78,0,0,0-.3,0A3,3,0,0,0,4.05,82H1.93c.2.62-.33,1.09-.23,1.64A.57.57,0,0,0,2,83.7c.31,0,.56-.27.84-.27a.44.44,0,0,1,.24.07,1.3,1.3,0,0,1-.85.52c0,.77,0,.77.72.88s.64.15.68.73c0,.41.16.71.54.71h.08c.42,0,.49.49,1,.51H5.3c.42,0,.85-.5,1.32-.5a.84.84,0,0,1,.63.36.31.31,0,0,1-.3.13H6.87a.44.44,0,0,0-.35.12,2.12,2.12,0,0,1,0,1.62.52.52,0,0,0,.44.19h.25a.73.73,0,0,1,.25,0l.16.45H8.67V91c.28.3.58.51.63.89H11c.27.26,0,.61.17.94H12c.21.37,0,.82.68,1.18.37,0,.72.8,1.53.8h.06a1.58,1.58,0,0,0,.83,1.41A2.46,2.46,0,0,1,16,97.67a2.13,2.13,0,0,0,1.19,1.67,1.07,1.07,0,0,1,.5.75,10.24,10.24,0,0,0,1,2.13,1.36,1.36,0,0,0,1.07.59c.52,0,.61.4.58.82.33.45.89.7,1,1.29a4.12,4.12,0,0,1,2.16,1.2c.44.36.81.79,1.21,1.19a1.68,1.68,0,0,0,1.08.63c.58,0,.82.79,1.42.91.95,1.1,2.37,1.29,3.59,1.85a2,2,0,0,0,.8.17,2,2,0,0,0,1.3-.47,1.11,1.11,0,0,1,.69-.36h.21a.37.37,0,0,0,.25-.08,3,3,0,0,1,1.94-.85c.42,0,.16-.55.62-.56s.92-.21,1.42-.21h2.25l1.07,0h.09a10,10,0,0,0,1.83-.4,2.19,2.19,0,0,0,1.17.41,1.44,1.44,0,0,0,.49-.08,1.06,1.06,0,0,1,.42-.66c.21.1.06.56.31.56a.53.53,0,0,0,.26-.09c0,.29.06.48.08.69a6.55,6.55,0,0,1,2.64.66,1,1,0,0,0,.45.12,1.1,1.1,0,0,0,.53-.15c.82-.45,1.67-.84,2.62-1.3h1.44c1-.53,1.67-1.35,2.62-1.83a16.37,16.37,0,0,1,2.18-.58,2.45,2.45,0,0,0,1.13-.49,1.68,1.68,0,0,1,1.3-.51h.19a4.35,4.35,0,0,0,.51,0,3.49,3.49,0,0,0,1.85-.44.58.58,0,0,1,.3-.08.24.24,0,0,1,.15,0,1.47,1.47,0,0,0,.93.28,8.8,8.8,0,0,0,.91-.08H66a4.13,4.13,0,0,1,2.21.78,6.63,6.63,0,0,1,1.92,1.92,2.45,2.45,0,0,1,.47,2c.12.21.25.17.46.18,0,1,.75,1.53,1.38,2.17h2c.49,0,1,0,1.47,0H76c.23,0,.47,0,.71,0a1.32,1.32,0,0,0,.81-.23.75.75,0,0,1,.42-.1l.45,0a1.13,1.13,0,0,0,.61-.15.71.71,0,0,1,.42-.1c.25,0,.54.06.8.06h.08a1,1,0,0,0,1-.7.68.68,0,0,0,.58.23h.4c.51.42.36,1,.39,1.58a4.16,4.16,0,0,0,1.66.35l.46,0v2.06c.46.22.49.71.81,1.06a1.65,1.65,0,0,0-.28,1.07,5.26,5.26,0,0,0,.11,1.17c.13.31-.25.67-.08,1.06a7,7,0,0,0-1.8,2.63c.73.39.73.39.78,1a.19.19,0,0,1-.19.09h-.15c-.24.23-.06.53-.14.86l.81.62a.37.37,0,0,1-.37.21h-.21c-.26,0-.51,0-.68.59v1.72a2.75,2.75,0,0,1-1.06.37,1.18,1.18,0,0,1-.31-.05,2,2,0,0,0,.6,2c.3.38.22.88.63,1.21s.34.73.41,1.16.55.72.55,1.21c1,.85,1.47,2.16,2.72,2.73a.63.63,0,0,1,.31.35c.14.46.48.63.86.85s.74.4.61.89l.69.07v.79c.47.36.75,1,1.41,1.17.1,0,.25.16.24.25,0,.68.88,1.05.54,1.77.34.17.75,0,.91.38.32.86-.45,1.65-.07,2.62,0,0,0,0,.09,0l.27,0a.37.37,0,0,1,.28.11c-.3,1.63.84,2.59,1.92,3.6,0,.56,0,1.12,0,1.68a1.74,1.74,0,0,0,.49,1.49c.27.24.3.6.49.87-.46.72-1.23,1.27-.94,2.31l.45.44a2.46,2.46,0,0,0,.38,1.83.61.61,0,0,1,.09.56,1.62,1.62,0,0,0,.43,1.16,5.68,5.68,0,0,1,1.06,3.07,4.68,4.68,0,0,1-1.05,2.85,1.53,1.53,0,0,0-.23.52c-.83,0-1.17.84-1.87,1.05v.69c-.38.76-1.2,1-1.65,1.51a12.21,12.21,0,0,0-.26,3.9,2.26,2.26,0,0,0-1,2.34,3,3,0,0,0-.59.42,1.63,1.63,0,0,0-.44,1.15,13.71,13.71,0,0,1,0,1.57,7.55,7.55,0,0,1-.19,2.21,1.89,1.89,0,0,0,.17,1.6,4.7,4.7,0,0,1,.27,2.44c.25.23.56.54.9.81a8.24,8.24,0,0,1,2.1,3.13,22.1,22.1,0,0,1,1.34,3.07,1.1,1.1,0,0,0,.24.4v1.22c.76.56,1,1.54,1.72,2.18a2.13,2.13,0,0,0,.57,1.81c.33.35.46.88.8,1.22a1.14,1.14,0,0,1,.2,1.4,1.56,1.56,0,0,0-.09,1.27,4.67,4.67,0,0,1,.2,1.73,8.85,8.85,0,0,0,.74,3.08,1.9,1.9,0,0,1,.23,1,8,8,0,0,0,0,.85c0,.26-.12.57.1.8s-.21.39-.12.69c.24.8.38,1.62.59,2.43,0,.05.2.06.35.1v1.72l.5.5v1.08c1,1.57,1.77,3.25,3.4,4.3v.8l.41.28a3.46,3.46,0,0,1,1.27,2.13c.12.47.44.94.27,1.46-.1.32.18.5.25.75a18.28,18.28,0,0,1,.69,2.37,2.76,2.76,0,0,0,1,1.59v1c.93.69.66,1.86,1.17,2.66-.2.45-.25,1.13-.86,1.13a1.46,1.46,0,0,1-.48-.1v1.78c.11.09.36.29.6.51a1.67,1.67,0,0,1,.55,1.46,3.18,3.18,0,0,1-.21,1.6c-.14.23,0,.62,0,1h.63c.3-.57.3-.57.94-.71.12.34.39.61.41,1h.79c.27.16,0,.45.18.65a3.24,3.24,0,0,1,1.65.8h1.21c.17-.65,1.12-.45,1.16-1.08a1,1,0,0,1,.51-.12h.28a.69.69,0,0,0,.55-.2.47.47,0,0,1,.28-.09.39.39,0,0,1,.17,0,1.38,1.38,0,0,0,.89.31,4.51,4.51,0,0,0,1.43-.38A2.87,2.87,0,0,0,122,238h1.72c.35.29.51.43.69.43s.32-.11.65-.3a1.53,1.53,0,0,1,.85-.24,3.31,3.31,0,0,1,1.22.3,5,5,0,0,0,1.86.54,2.39,2.39,0,0,0,.63-.09c.15-.22-.06-.69.42-.86a2.09,2.09,0,0,0,1.35.46,3.5,3.5,0,0,0,.7-.08v-1a2.94,2.94,0,0,1,1.16-.36,1.33,1.33,0,0,1,.72.22.84.84,0,0,0,.42.1,1.11,1.11,0,0,0,.7-.25,3.78,3.78,0,0,1,1-.38,3,3,0,0,0,1.21-.62c.26-.25.78-.23.88-.71h.08c.4,0,.59-.4.89-.57.67-.37,1.51-.61,1.79-1.47a6.43,6.43,0,0,0,1.78-1.54,33.31,33.31,0,0,1,3.16-2.9,1.55,1.55,0,0,1,.43-.18v-.78c1.31-.88,1.87-2.37,2.65-3.67.21-.34.38-.55.69-.55l.19,0c.33-.62.4-1.37,1-1.78.1-.78,1-.86,1.29-1.5,0-.1.26-.11.39-.18a3.59,3.59,0,0,0,.88-.46c.21-.25.4-.55.63-.81a11.79,11.79,0,0,0,1-2.14c0-.46.39-.73.48-1.13.17-.69.33-1.4.49-2.09a5.77,5.77,0,0,1,.63-2c.19-.26,0-.54.1-.81a.4.4,0,0,0-.34-.15l-.34,0a.41.41,0,0,1-.21-.05c-.11-.24-.12-.52-.32-.61,0-.43.4-.23.41-.39.08-.93.79-1.29,1.49-1.61a2.77,2.77,0,0,0,.72-.59,2.6,2.6,0,0,1,1.42-.66,11,11,0,0,0,3.14-.9,10.59,10.59,0,0,0,2-1.63c-.46-.7.67-1,.43-1.72l-.4-.14a.79.79,0,0,1-.06-.22,5.2,5.2,0,0,1,.58-2.05,1.09,1.09,0,0,0-.11-1c.21-.52.66-1,.47-1.61a.27.27,0,0,0-.23-.09h-.19a.28.28,0,0,1-.15,0l-.32.68c-.16-1.72.22-3.38-.72-4.84,0-.2.3-.29.2-.57a4.49,4.49,0,0,0-.94-1.36,7.62,7.62,0,0,0,.47-2l2-.58c.21-.27.07-.56.12-.89.78-.37,1.35-1.17,2.31-1.31,0-.45.55-.39.66-.67a1.71,1.71,0,0,1,.86-.82,3.07,3.07,0,0,0,1.1-1.37h.79c0-.5.57-.66.61-1.16a8.7,8.7,0,0,0,2.76-1.49.47.47,0,0,0,.41.25.46.46,0,0,0,.2-.05c.7-.37,1.37-.79,2-1.22.11-.07.12-.27.18-.41a7.11,7.11,0,0,0,2.15-.94c.28-.13.19-.41.2-.64.5-.39,1.09-.62,1.25-1.4a1.93,1.93,0,0,1,1.13-1.2V173.8c.79,0,.3-1.06,1-1.11a2.71,2.71,0,0,0-.27-1.88l-.56-.06c-.1-.06-.1-.1,0-.17s.2-.14.17-.29c-.17-1.2.35-2.34.25-3.53a1.14,1.14,0,0,1,.15-.66,1.08,1.08,0,0,0,0-1.12c-.15-.19-.19-.46-.1-.55.52-.5.07-.93-.12-1.34a1,1,0,0,1-.13-.55c0-.25.3-.43.24-.74a4.5,4.5,0,0,1,0-.82l.46-.46v-2.73c-.35-.09-.64-.36-.95-.36a.48.48,0,0,0-.2,0l-1.24-1.25a2,2,0,0,0-.31-1.35c-.07-.09-.2-.14-.18-.29.17-.93-.58-1.67-.5-2.57-.4-.31,0-.61.06-.9.08-.93-.35-1.78-.28-2.69.15-.15.25-.39.5-.39a.5.5,0,0,1,.19,0v-1.91a10.14,10.14,0,0,1-2.16-1.88c.47-1.56,1.27-3,1.25-4.62a1.33,1.33,0,0,0,.91-.69,13.22,13.22,0,0,1,.87-1.33c.16-.24.41-.59.34-.81a1.57,1.57,0,0,1,.56-1.46,1.76,1.76,0,0,0,.44-1.33l1-1h.81c.39-.35.52-.89,1.09-1,.4-.05.27-.61.64-.74.57-.21.72-.85,1.18-1.18.2-.15.09-.37.12-.56a10.79,10.79,0,0,0,2.18-2.09c.75-.87,1.24-2,2.37-2.51.07,0,.12-.11.17-.17,1.19-1.36,2.66-2.41,3.92-3.68a16.66,16.66,0,0,1,2.93-2.57h0a2.66,2.66,0,0,0,1.89-.86c.93-1,2.09-1.7,3-2.71.36-.41.91-.6,1.26-1a29.33,29.33,0,0,1,2.66-3.13c.28-.26.12-.63.37-.95s.65-.87,1-1.25c.83-.89,1-2.14,1.84-3a.91.91,0,0,0,.32-.83c-.19-.64.43-1,.48-1.61.81-.69.89-1.84,1.6-2.61a.83.83,0,0,0-.13-1.06c.39-.26.6-.69,1.09-.88a1.29,1.29,0,0,0,.63-.93,2.6,2.6,0,0,1,.84-1.45c.36-.27.3-.84.83-1-.19-1,.42-1.94.19-3l.55-.41c-.14-.63.17-1.25-.25-1.78.31-.06.06-.57.45-.58V86.6h-.1c-.49,0-.94-.27-1.44-.27a1.3,1.3,0,0,0-.58.14,2.16,2.16,0,0,1-2,1.35l-.27,0h-.26a1.92,1.92,0,0,0-1.51.7,1.23,1.23,0,0,1-.46.07h-.43a1.28,1.28,0,0,0-.5.08.69.69,0,0,1-.2,0c-.27,0-.59-.14-.89-.14h-.08a1.63,1.63,0,0,0-1,.25,1.25,1.25,0,0,1-.87.25h-2.06a11.57,11.57,0,0,0-1.65,1,1.37,1.37,0,0,1-.83.27,1.86,1.86,0,0,1-.6-.11c-.1,0-.18-.12-.29-.17l-.11,0c-.22,0-.39.28-.61.28a.33.33,0,0,1-.23-.11.57.57,0,0,0-.41-.15l-.36,0a.69.69,0,0,1-.28,0c-.48.46-.89,1-1.64,1-.36,0-.52.46-.82.69h-1.45c-.35-.24-.58-.7-1.07-.81-.38-.85-1.23-1.3-1.72-2.07-.32-.5-.49-.59-1.34-.74-.07.41-.39.65-.69.95h-1.47c-.29.57-1,.48-1.42.82l-.35-.42a3.61,3.61,0,0,0,.66-2.32c-.06-.46.28-.79.28-1.23s.4-.46.61-.7a1.18,1.18,0,0,0,.26,0,3.68,3.68,0,0,0,1.53-.64c.31-.14.27-.45.2-.81h-.12a4.7,4.7,0,0,1-1-.32c-.21-.18.06-.49,0-.84a2.79,2.79,0,0,0-.57-.42,1.09,1.09,0,0,1-.71-.9,1.1,1.1,0,0,0-.49-.71c-.63-.53-1.5-.79-1.86-1.67-.14-.34-.54-.58-.83-.86a.64.64,0,0,1-.24-.58l-.22,0c-.79,0-1-.78-1.58-1.22h-1.7l-.58-.76a1.41,1.41,0,0,0-.49-1.17h-.4c-.33.47.08.86.17,1.27a.34.34,0,0,1-.26.15.41.41,0,0,1-.2-.06c-.18-.4.1-.9-.27-1.32a2,2,0,0,1-.65-1c-.07-.39-.27-.76-.38-1.17a8.82,8.82,0,0,0-.23-1.35c-.37-.86-.53-1.79-.94-2.63-.34-.67-.42-1.5-1.2-1.93v-.8a3,3,0,0,0-1.07-.36,1.18,1.18,0,0,0-.31,0c-.13-.38,0-.9-.51-1-.33,0-.41-.43-.65-.47-1.44-.25-1.27-1.61-1.75-2.51-.09-.17.19-.34.19-.59a10.21,10.21,0,0,0-.59-3.15,4.17,4.17,0,0,1-.39-1.89,3.09,3.09,0,0,0-.3-1.33,11,11,0,0,1-.22-1.36.68.68,0,0,0-.36-.08h-.46l-1.11-1.11c-.34-.33-.84-.51-1-1h-1.19l-1-1.11a6.4,6.4,0,0,1-.2-2.49l.4-.08a.33.33,0,0,0,.08-.42,3.08,3.08,0,0,0-.69-1c-.4-.29-.81-.49-.75-1.07a9,9,0,0,0-1.73-2.33.44.44,0,0,1-.21-.35,5.47,5.47,0,0,0-1.46-2.64,4.26,4.26,0,0,1-.92-2.29,4,4,0,0,0-1.19-2.53c-.25-.21-.28-.55-.51-.78a.39.39,0,0,0,.1-.08c.39-.42-.2-.83-.12-1.25h0a.48.48,0,0,1,.18.07,2.24,2.24,0,0,1,.43.44,1.86,1.86,0,0,0,1.31.68,1.7,1.7,0,0,0,1-.34,3.66,3.66,0,0,0,0-.57c-.14-1.19.41-2.26.57-3.39.1-.68.7-1.31.17-2-.06-.08,0-.24,0-.36a4.53,4.53,0,0,0-1.05-3.2,2.86,2.86,0,0,1-.65-1.54c0-.53-.5-.83-.74-1.26a.26.26,0,0,0-.25-.12h-.39l-.35.43c-.1.12-.19.25-.25.33a7.41,7.41,0,0,1-2.19-.23,1,1,0,0,0-.33-.06c-.48,0-.93.36-1.41.42h0c-.49,0-.72-.63-1.26-.63l-.22,0c-.23.17,0,.47-.16.65-.59-.17-.35-.68-.45-1.16a1.25,1.25,0,0,1-.32.05c-.49,0-1-.29-1.47-.29a1.18,1.18,0,0,0-.26,0l-.42.43h-1.53l-.17-.46h-.29a.37.37,0,0,0-.25.06c-1,.88-2.45.94-3.31,2.09-.15,0-.32.06-.49.06a.6.6,0,0,1-.37-.12,3.49,3.49,0,0,0-2.2-.65,8.43,8.43,0,0,0-.86,0l-.37-.51a4.62,4.62,0,0,1-2-.37,3.82,3.82,0,0,0-1.65-.39l-.37,0-.5,0a4.14,4.14,0,0,1-1.76-.39,1.64,1.64,0,0,0-.72-.13l-.71,0a2.43,2.43,0,0,1-.38,0l-.72-1.43a3.39,3.39,0,0,1-.55,0c-.94,0-1.89-.28-2.86-.31l-.44-.44a5.05,5.05,0,0,1-1.36-.21c-.39-.18-.73-.21-.72-.73a.49.49,0,0,0-.41-.5c-.34-.05-.43-.35-.72-.52a1.4,1.4,0,0,1-.41.06c-.58,0-1.15-.3-1.77-.3h-.13c-.58,0-1.14-.25-1.74-.25a1.75,1.75,0,0,0-.55.08,1.7,1.7,0,0,1-1.09.43,4.52,4.52,0,0,0-3.34,1.59V18l-.45.46v2.71c.46.24.44.84.71,1.31-.48,1.14-1.56,1.76-2.29,2.66A3.56,3.56,0,0,1,111.51,24a10.55,10.55,0,0,0-2.87-1.86,20.43,20.43,0,0,0-2.82-1.07,1.75,1.75,0,0,0-.62-.11,1.22,1.22,0,0,0-.65.17,1,1,0,0,1-.55.18,1.73,1.73,0,0,1-.93-.4,2.76,2.76,0,0,1-.89-1.07,2.92,2.92,0,0,0-.58-1.1V17.54l-.87-.85h-.3a3.5,3.5,0,0,1-2.62-1,3.36,3.36,0,0,1-.63.06c-.9,0-1.81-.31-2.75-.31a3.25,3.25,0,0,0-.44,0h-.08l-.43,0a.31.31,0,0,0-.2.05,1.11,1.11,0,0,1-.7.25,2,2,0,0,1-.63-.12c-.5-.18-1.08-.27-1.25-.85-2.08,0-2.25-.13-2.47-1.17-.13-.13-.43,0-.5-.58l-.31.92c-1-.9-2.23-1-2.48-2.52.06-.39.48-.72,1-1a6.34,6.34,0,0,0,1.77-1.53c.3-1.09-.2-2-.2-3a.32.32,0,0,0-.24-.09H87a2.91,2.91,0,0,1-1-1.37c.21-.23.16-.79.77-.83.13,0,.14-.2.1-.3-.13-.33.38-.44.25-.75.56-.37.54-.92.46-1.49A.5.5,0,0,0,87.2,1l-.35,0h-.13L85.57,2.15c-.58-.14-.26-.79-.64-1S84.75.3,84.42,0Z"/></svg>