<svg id="Pfad" xmlns="http://www.w3.org/2000/svg" viewBox="0 0 287.8 395.9"><defs><style>.cls-1{fill:#c08845;}</style></defs><path class="cls-1" d="M333.08,137.93H321.2l-.11-14.9a9,9,0,1,0-18,.14l.51,66.92v.27c0,.28.85,28.08-11.65,56-16.26,36.36-46.85,56.17-90.94,58.87a9.28,9.28,0,0,0-2.65.57,9.13,9.13,0,0,0-2.64-.57c-44.09-2.7-74.68-22.51-90.94-58.87-12.5-27.94-11.66-55.74-11.65-56v-.29l.51-66.92a9,9,0,1,0-18-.14l-.11,14.9H63.28a9,9,0,0,0,0,18H75.39l-.26,33.91A158.27,158.27,0,0,0,88.07,253.1c12.76,28.92,40.59,64,100.89,69.68v56.48H146.37a9,9,0,0,0,0,18H250a9,9,0,0,0,0-18H207V322.84c60.86-5.43,88.89-40.69,101.7-69.74a158.05,158.05,0,0,0,12.93-63.26l-.25-33.91h11.74a9,9,0,0,0,0-18Z" transform="translate(-54.28 -1.36)"/><path class="cls-1" d="M130.56,255.22a86.62,86.62,0,0,0,62,31c1.48.09,3,.14,4.61.14,17.84,0,41.93-6,60.9-23C275.27,248,285,226,286.29,199.83c0-.15,0-.29,0-.44v-114a9.13,9.13,0,0,0,.2-2.29c0-.94-.11-1.89-.2-2.84V79.5a9.17,9.17,0,0,0-.41-2.69c-2.23-15-9.89-31.43-20.84-44.32a86.64,86.64,0,0,0-62-31c-18.13-1.1-44.85,4.3-65.51,22.82-15.76,14.12-25.25,33.82-27.68,57.24a8.92,8.92,0,0,0-.73,3.4c0,3.66-1.29,90,0,119.66C109.83,221.1,118.05,240.49,130.56,255.22Zm19-217.51c16.55-14.83,38.57-19.1,52.4-18.25,43.37,2.66,64,40.1,66.38,61.76V86.6H231.05a9,9,0,0,0,0,18H268.3v33.33H231.05a9,9,0,0,0,0,18H268.3v33H231.05a9,9,0,0,0,0,18H267.6c-2.33,17.89-9.55,32.35-21.51,43.06-16.55,14.83-38.56,19.11-52.4,18.25-43.08-2.63-63.69-39.58-66.32-61.31h36.74a9,9,0,0,0,0-18H126.7c-.14-9.57-.19-21.12-.17-33h37.58a9,9,0,0,0,0-18H126.59c.07-12.32.17-24.06.27-33.33h37.25a9,9,0,0,0,0-18H127.45C128.88,66,136.29,49.57,149.52,37.71Z" transform="translate(-54.28 -1.36)"/></svg>