<svg xmlns="http://www.w3.org/2000/svg" viewBox="0 0 614.57 678.69"><defs><style>.cls-1{fill:#dbc3a5;}.cls-2{fill:#c08845;}</style></defs><g id="Ebene_2" data-name="Ebene 2"><path class="cls-1" d="M608.59,243.83c-1.19,2.35-3.11,4.09-6.29,3.76a5.52,5.52,0,0,0-5,1.94c-1.26.47-2.58-.12-3.92.39-.94.36-2.14-.41-3.31-.3a4.54,4.54,0,0,0-2.78.71,3.86,3.86,0,0,1-2.78.69c-1.93,0-3.85,0-5.48,0a33.14,33.14,0,0,0-4.65,2.71,4.1,4.1,0,0,1-4,.45c-.29-.11-.51-.33-.83-.46-1-.41-1.59,1.43-2.68.41-.85-.81-2-.1-3-.49-1.35,1.28-2.51,2.76-4.61,2.89-1,.07-1.46,1.3-2.33,2h-4.07c-1-.69-1.63-2-3-2.29-1.08-2.39-3.48-3.68-4.85-5.83-.91-1.43-1.38-1.67-3.76-2.09-.22,1.14-1.12,1.81-2,2.67h-4.14c-.81,1.6-2.69,1.34-4,2.31l-1-1.19a10.22,10.22,0,0,0,1.87-6.53c-.16-1.31.78-2.22.78-3.47,0-.9,1.13-1.3,1.72-2,2,.42,3.43-1,5.06-1.72.86-.4.74-1.27.56-2.29-1.06.19-1.92-.57-3.13-.87-.61-.52.15-1.4.08-2.37a7,7,0,0,0-1.62-1.2,3.08,3.08,0,0,1-2-2.54,3,3,0,0,0-1.38-2c-1.79-1.5-4.23-2.23-5.23-4.71-.4-1-1.52-1.65-2.35-2.43a1.8,1.8,0,0,1-.68-1.63c-2.72.46-3.41-2-5.07-3.4h-4.81c-.42-.56-.9-1.18-1.64-2.14a3.83,3.83,0,0,0-1.38-3.28h-1.13c-.93,1.3.23,2.42.49,3.56a.9.9,0,0,1-1.3.27c-.5-1.14.28-2.53-.76-3.73a5.81,5.81,0,0,1-1.84-2.92c-.18-1.11-.76-2.16-1.05-3.31s-.19-2.7-.66-3.8c-1-2.43-1.48-5.07-2.66-7.42-.95-1.89-1.17-4.25-3.38-5.44v-2.26c-1.31-.54-2.42-1.32-3.88-.88-.38-1.06,0-2.52-1.44-2.77-.93-.17-1.16-1.22-1.83-1.34-4.08-.7-3.58-4.54-4.94-7.08-.26-.49.52-1,.53-1.67a29.13,29.13,0,0,0-1.65-8.89c-.56-1.75-1.38-3.42-1.12-5.32a8.23,8.23,0,0,0-.84-3.75c-.44-1.31-.32-2.58-.62-3.83-.74-.44-1.55-.12-2.31-.23-1-1-2.08-2.09-3.13-3.13s-2.36-1.44-2.71-2.93h-3.36l-2.86-3.12c-1-1.72-.46-4.37-.56-7l1.12-.24a1,1,0,0,0,.22-1.19,8.49,8.49,0,0,0-1.95-2.76c-1.12-.81-2.28-1.38-2.11-3-1.6-2.21-2.56-4.92-4.88-6.56a1.22,1.22,0,0,1-.58-1,15.36,15.36,0,0,0-4.13-7.45c-1.74-1.94-2.19-4.2-2.6-6.44-.51-2.74-1.12-5.29-3.34-7.15-.72-.59-.79-1.54-1.43-2.18a2.05,2.05,0,0,0,.26-.24c1.11-1.18-.56-2.35-.32-3.54h0a1.65,1.65,0,0,1,.51.2,7.11,7.11,0,0,1,1.21,1.24c1.87,1.93,3.88,2.71,6.41.95a14.13,14.13,0,0,0,0-1.59c-.41-3.36,1.15-6.37,1.6-9.58.28-1.9,2-3.67.47-5.74-.16-.22-.06-.67,0-1,.45-3.49-1.1-6.26-3-9a8,8,0,0,1-1.85-4.34c0-1.51-1.39-2.36-2.08-3.56-.34-.6-1-.21-1.8-.38l-1,1.22c-.28.35-.54.72-.71.94-2.24-.19-4.19.13-6.17-.66-1.71-.68-3.24.82-4.91,1-1.58,0-2.22-2.28-4.2-1.69-.66.47.12,1.33-.46,1.84-1.65-.5-1-1.93-1.27-3.28-2,.59-3.65-1-5.76-.62L424,57.9H419.7c-.13-.37-.28-.77-.48-1.31-.49,0-1.21-.11-1.52.17-2.73,2.5-6.9,2.66-9.32,5.88-.75.08-1.64.44-2.43-.15-2.56-1.91-5.47-2-8.64-1.7-.36-.49-.76-1-1-1.44a12.66,12.66,0,0,1-5.65-1,10.6,10.6,0,0,0-5.71-1,11.77,11.77,0,0,1-6.39-1c-1.59-.73-3.32-.11-5.09-.38-.61-1.21-1.26-2.51-2-4-3.16.45-6.36-.68-9.64-.75l-1.23-1.24c-1.26-.2-2.51,0-3.82-.62-1.11-.48-2.08-.59-2-2a1.41,1.41,0,0,0-1.18-1.41c-.95-.14-1.19-1-2-1.45-2.09.63-4.12-.77-6.35-.7s-4.27-1.2-6.65-.47a4.84,4.84,0,0,1-3.07,1.23c-3.62.39-7,1.37-9.4,4.47v2l-1.29,1.28v7.63c1.31.69,1.26,2.38,2,3.72-1.33,3.2-4.39,4.94-6.44,7.49a10.1,10.1,0,0,1-5.86-3.24c-2.36-2.41-5.22-3.75-8.1-5.25a57.52,57.52,0,0,0-8-3,4.33,4.33,0,0,0-3.6.18c-1.67,1.08-3,.19-4.16-.63a7.46,7.46,0,0,1-2.5-3c-.49-1-.71-2.26-1.65-3.09V49.45c-.8-.78-1.61-1.57-2.46-2.38a10.31,10.31,0,0,1-8.23-2.79c-3.52.68-7.06-1.06-10.76-.64-.67.08-1.58-.26-2,.07a3.61,3.61,0,0,1-3.74.36c-1.43-.49-3.05-.76-3.54-2.39-5.87-.15-6.33-.38-6.95-3.31-.39-.37-1.21.07-1.42-1.63l-.89,2.59c-2.67-2.54-6.28-2.93-7-7.1.17-1.11,1.35-2,2.86-2.83a18.59,18.59,0,0,0,5-4.34c.84-3.06-.56-5.69-.57-8.45-.47-.48-1.07-.12-1.62-.24-1-1.12-2.38-2-2.8-3.88.58-.64.46-2.24,2.18-2.33.35,0,.39-.58.28-.87-.38-.93,1-1.22.7-2.11,1.56-1,1.5-2.59,1.28-4.2-.69-.54-1.51-.14-2.3-.26l-3.25,3.35c-1.64-.41-.72-2.24-1.79-2.92S239,.84,238.05,0h-2.72c0,.94-.75.71-1.22.66-3.23-.33-5.74,1-7.89,3.34-2.22.38-4.59-.38-6.81.72a1.85,1.85,0,0,1-2.13-.53,4.07,4.07,0,0,0-2.81-1.48l-2,2h-2.82c-.74-.16.38-1.83-.58-1.63-3.25-1.24-4.84.92-7.12,2.35-1.47-.06-3.35-.11-4.55,1.44-1.25-.29-1.58-1.07-1.85-2.12-1.63,0-3.31,0-5,0s-3.53.3-5.19-.64c-.42-.24-1.09,0-1.55,0-.6.67-1.44,1-1,2h-5.06L176.29,7.5c-1.45.23-2.71-1.3-4.13-.65-2.37,1.1-4.82.43-7.49.71a17.65,17.65,0,0,1-4.52,3.4c-1,.22-2.9-.62-4.38.84-.55.36,0,1-.46,1.71-.35.35-.92.91-1.47,1.47a2.28,2.28,0,0,0-3.5.08,4.8,4.8,0,0,1-3.2,1.35,3.71,3.71,0,0,0-3.21,1.84,6.66,6.66,0,0,1-5.37,3.69,6.12,6.12,0,0,1-3.57,0c-1.09-.41-2.46-.08-3.69-.08a6.06,6.06,0,0,1-1-1C129,18.64,129,18.63,127,20a7.93,7.93,0,0,1-3.32.54c-2.07.11-4.16-.51-6.24.55-1,.5-2.46.09-3.52.09l-4.22-4.23V14.38c-2.89-.32-4.76,1.34-6.64,2.76a22.77,22.77,0,0,1-.33,4.5c-.29,1.08-1.38,1.93-1.75,3s-.3,2.06-.62,3.14c-.59,2-1.25,3.52-3.27,4.44-1,.44-1.51,1.81-2.47,2.28a12.77,12.77,0,0,1-3.74,1.68,3.63,3.63,0,0,0-2.24,1.08c-1.46,1.92-3.75,2.62-5.56,4a3.19,3.19,0,0,1-2.28,1c-.49-.07-1,0-1.14.49-.65,2.41-3.52,2.54-4.52,4.56-.78,1.89.86,3.56.51,5.62-2.71,1.38-4.28,3.76-5.55,6.65-.67,1.51-.23,2.82-.56,4L71,66.14c-1.21,1.19-.62,2.81-.79,4.24.29.83,1.29,1,1.39,1.9a10.41,10.41,0,0,1-3.12,4.16,16.63,16.63,0,0,0-3.77,5.94A5.45,5.45,0,0,1,58.92,86c-1.59,2.25-4.18,3.49-6.05,5.36-2.74.55-5.3,1.55-8.09,1.46-.84.79-1.9,1.37-1.88,2.89,0,.6-1,.94-1.53,1.64-2.36,3.37-2.46,3.3-2.57,6.86-2.65.41-4.76,2.15-7.21,3.11-.42.16-.71.73-.95,1.27a3,3,0,0,1-2.66,2v3.29c-1.64,3.05-4.05,5.22-4.91,8.53-.6,2.36-2.82,4-4.76,5.46s-2.6,3.48-3.2,5.47a7.81,7.81,0,0,1-1.76,3.71,4.74,4.74,0,0,0-1.75,3.71,1.56,1.56,0,0,1-.4,1.2c-1.73,2-2.64,4.58-5,6.25.69,2.34-1.89,4-1.4,6.43.45,2.29-1.34,4.46-.48,6.85.87.79,1.66-.32,2.54-.28V162c.3.35.3.35,2.66.52,2.08,2.78,1.87,5.72.53,8.75H8.5a1.29,1.29,0,0,0-.27,1.55c1.15.94,1.27,2.61,2.54,3.34.32,2.4.87,4.69,1.34,7a31.4,31.4,0,0,1,.12,7.45,4,4,0,0,1-1.1,1.91c-2.1,2.64-2.61,5.82-2.9,9a21.44,21.44,0,0,1-1.85,6.75,11.05,11.05,0,0,1-5.07,5.68c-.48.25-.62,1-1.31,1v2.73c2.3,1.26,2.52,1.46,3.41,3.1C4.1,222,4.1,222,6,223.21c-.21,1.48.78,2.86,1,4.53,4.15.39,8-.19,11.08-3.3h4.28a99.41,99.41,0,0,1,9.7,4.39c-.07,1.45-1.08,1.17-1.5,1-1.37-.6-3-.75-4.17-1.43s-2.69-.54-4-1.13a4.76,4.76,0,0,0-4.12.52c-.73.41-1.68,0-2.6.28a8.79,8.79,0,0,0-4.29,3.07h-6c.57,1.75-.93,3.07-.64,4.63,1.51.94,2.53-1.14,3.87-.29a3.77,3.77,0,0,1-2.42,1.45c.12,2.18.12,2.18,2,2.5,1.55.26,1.81.41,1.92,2.06.07,1.19.49,2.06,1.66,2s1.44,1.38,2.76,1.43c1.79.42,3.64-3,5.82-.35-.51.73-1.36,0-2.05.71a6.13,6.13,0,0,1-.08,4.57c.79.94,1.78.25,2.64.62.12.34.27.74.46,1.25h3v5c.8.83,1.64,1.42,1.79,2.5H31c.79.72.07,1.73.49,2.64h2.25c.58,1.05.11,2.32,1.92,3.34,1.06.05,2.06,2.34,4.45,2.24-.15,1.8,1,2.91,2.34,4a6.89,6.89,0,0,1,2.63,4c.46,1.87,1.18,3.83,3.37,4.72a3.13,3.13,0,0,1,1.41,2.11,29.54,29.54,0,0,0,2.75,6,3.76,3.76,0,0,0,3,1.66c1.47.14,1.73,1.15,1.63,2.31.92,1.29,2.5,2,2.89,3.65,2.51.26,4.28,1.9,6.08,3.39,1.23,1,2.27,2.23,3.4,3.35a4.66,4.66,0,0,0,3,1.77c1.64.15,2.34,2.22,4,2.58,2.66,3.09,6.69,3.62,10.13,5.2a5.64,5.64,0,0,0,5.91-.83c.73-.59,1.31-1.18,2.34-1a1.19,1.19,0,0,0,.92-.21,8.42,8.42,0,0,1,5.46-2.4c1.17-.15.46-1.54,1.75-1.58s2.69-.64,4.15-.6c3.07.09,6.14-.07,9.21.07,1.82.08,3.33-.72,5.42-1.12a5.45,5.45,0,0,0,4.67.93,2.85,2.85,0,0,1,1.18-1.87c.73.34-.08,2.28,1.62,1.32l.23,1.94a18.73,18.73,0,0,1,7.43,1.86,2.73,2.73,0,0,0,2.77-.08c2.32-1.25,4.72-2.36,7.38-3.67h4.08c2.84-1.48,4.69-3.81,7.39-5.14,2-1,4.12-1,6.14-1.64,1.13-.36,2.31-.48,3.18-1.39a5,5,0,0,1,4.19-1.42,11.18,11.18,0,0,0,6.66-1.21,1.45,1.45,0,0,1,1.27-.11c1.64,1.23,3.51.72,5.19.57,2.71-.23,4.9.87,7,2.17a19.09,19.09,0,0,1,5.42,5.4,7,7,0,0,1,1.32,5.65c.35.59.71.48,1.29.52-.05,2.81,2.12,4.3,3.89,6.12,3.26,0,6.56.09,9.85,0,1.49-.07,3,.49,4.55-.55,1.06-.72,2.7.25,4.15-.67.9-.57,2.44-.05,3.69-.12s2.48-.45,2.91-2c.75.94,1.79.54,2.76.68,1.42,1.19,1,2.93,1.09,4.47a11.84,11.84,0,0,0,6,.9v5.81c1.29.61,1.39,2,2.29,3a4.44,4.44,0,0,0-.79,3c.2,1.07-.16,2.16.31,3.28.37.9-.71,1.91-.22,3-2.45,2-3.82,4.66-5.08,7.41,2.05,1.1,2.05,1.1,2.19,2.93-.23.39-.6.23-.95.27-.68.64-.17,1.49-.39,2.42L238.9,350a1.09,1.09,0,0,1-1.06.61c-.88,0-1.9-.29-2.48,1.66v4.85c-1.31.54-2.41,1.35-3.88.89-.83,2.37.48,4.14,1.69,5.64.85,1.06.64,2.48,1.79,3.42.86.7.95,2.05,1.14,3.26s1.55,2,1.57,3.42c2.73,2.39,4.13,6.1,7.66,7.7a1.7,1.7,0,0,1,.88,1c.37,1.29,1.34,1.78,2.42,2.41.84.49,2.09,1.1,1.73,2.5l1.93.2v2.23c1.34,1,2.13,2.72,4,3.28.29.09.7.47.7.7,0,1.92,2.46,3,1.5,5,1,.49,2.12-.1,2.58,1.07.9,2.41-1.28,4.66-.22,7.4.27.37,1.11-.35,1.82.35-.83,4.6,2.38,7.3,5.43,10.15,0,1.57.05,3.15,0,4.73a4.91,4.91,0,0,0,1.39,4.2c.77.68.85,1.71,1.38,2.48-1.28,2-3.48,3.58-2.65,6.49l1.26,1.26c0,1.68-.29,3.62,1.08,5.14a1.78,1.78,0,0,1,.26,1.59,4.55,4.55,0,0,0,1.19,3.26,15.8,15.8,0,0,1,3,8.68c.12,3.18-1.32,5.6-2.94,8a5,5,0,0,0-.68,1.47c-2.33,0-3.27,2.37-5.26,3v2c-1.08,2.13-3.38,2.68-4.65,4.23-.65,3.7-1.26,7.31-.72,11-1.91,1.61-3.33,3.39-2.71,6.61a7,7,0,0,0-1.66,1.19,4.47,4.47,0,0,0-1.25,3.23,38.51,38.51,0,0,1,0,4.43c-.14,2.07.22,4.12-.54,6.24a5.27,5.27,0,0,0,.49,4.49c1.18,1.93.72,4.29.75,6.9.7.63,1.57,1.53,2.54,2.28,3,2.28,4.36,5.68,5.91,8.82a62.27,62.27,0,0,1,3.79,8.65,2.77,2.77,0,0,0,.69,1.12v3.46c2.14,1.57,2.83,4.33,4.83,6.14a6.07,6.07,0,0,0,1.61,5.1c.92,1,1.31,2.49,2.25,3.46a3.17,3.17,0,0,1,.56,3.94,4.31,4.31,0,0,0-.24,3.56c.75,1.66.41,3.26.57,4.89a24.75,24.75,0,0,0,2.08,8.68,5.68,5.68,0,0,1,.65,2.8,19.05,19.05,0,0,0,0,2.39c.06.76-.36,1.61.27,2.26.78.81-.6,1.11-.34,2,.69,2.24,1.08,4.56,1.65,6.83,0,.15.58.17,1,.28v4.87l1.41,1.39v3.05c2.84,4.44,5,9.16,9.57,12.14v2.26l1.15.79c2.11,1.45,3,3.71,3.61,6,.33,1.32,1.21,2.64.75,4.13-.29.9.5,1.38.7,2.1a52.19,52.19,0,0,1,1.95,6.67c.29,2,1.41,3.14,2.76,4.51v2.78c2.62,1.93,1.86,5.25,3.31,7.49-.71,1.56-.74,4.06-3.77,2.91v5c.29.25,1,.81,1.66,1.42a4.72,4.72,0,0,1,1.58,4.12c-.14,1.51.3,3-.62,4.53-.39.64-.06,1.73-.06,2.71h1.78c.84-1.6.84-1.6,2.63-2,.34.95,1.1,1.7,1.16,2.75h2.22c.77.46.13,1.28.51,1.83a9.25,9.25,0,0,1,4.66,2.27H324c.49-1.85,3.17-1.28,3.26-3.07,1.39-.75,2.77.24,3.8-.86a1.3,1.3,0,0,1,1.25-.13c2.24,1.72,4.6.47,6.56-.19,1.8-.6,4-1.22,5.1-3.21h4.85c1.85,1.57,1.83,1.54,3.76.37s3.84-.63,5.84.18c2.17.87,4.37,2,7,1.27.43-.63-.15-1.95,1.19-2.44a6.5,6.5,0,0,0,5.78,1.07v-2.93c1.8-.81,3.36-1.59,5.31-.39a2.93,2.93,0,0,0,3.16-.42c.77-.63,2-.7,2.94-1.07a8.74,8.74,0,0,0,3.41-1.75c.71-.71,2.18-.63,2.48-2,1.28.17,1.83-1.08,2.73-1.59,1.88-1,4.25-1.73,5.06-4.15,2.09-1,3.45-2.78,5-4.35a97,97,0,0,1,8.9-8.18,5.65,5.65,0,0,1,1.21-.51v-2.2c3.69-2.48,5.27-6.66,7.49-10.35.68-1.13,1.23-1.73,2.48-1.47.93-1.77,1.11-3.88,2.91-5,.27-2.2,2.85-2.44,3.62-4.25.11-.27.75-.3,1.12-.5a10.21,10.21,0,0,0,2.46-1.29c.6-.71,1.14-1.56,1.8-2.28a34.81,34.81,0,0,0,2.71-6c0-1.29,1.1-2,1.38-3.19.47-2,.9-3.94,1.37-5.91s.59-4,1.78-5.74c.51-.74.14-1.52.26-2.28-.69-.87-1.71-.06-2.49-.48-.33-.67-.36-1.47-.91-1.72,0-1.21,1.13-.66,1.17-1.1.22-2.63,2.22-3.63,4.18-4.53a7.79,7.79,0,0,0,2-1.67,7.43,7.43,0,0,1,4-1.87,31.26,31.26,0,0,0,8.84-2.53c2.28-1.17,3.8-2.95,5.77-4.61-1.3-2,1.89-2.82,1.21-4.84l-1.14-.4a2.61,2.61,0,0,1-.16-.61c-.12-2.11,1-4,1.64-5.8a3.16,3.16,0,0,0-.31-3c.57-1.47,1.84-2.73,1.31-4.53-.45-.53-1.08-.06-1.61-.33l-.89,1.91c-.45-4.86.63-9.52-2-13.65-.12-.57.84-.82.56-1.61a12.89,12.89,0,0,0-2.63-3.84,21.44,21.44,0,0,0,1.32-5.66l5.76-1.65c.58-.74.18-1.56.32-2.48,2.19-1.06,3.81-3.32,6.53-3.71,0-1.28,1.54-1.09,1.84-1.9a4.75,4.75,0,0,1,2.45-2.3,8.59,8.59,0,0,0,3.08-3.87h2.25c-.09-1.4,1.58-1.85,1.7-3.25,3-.73,5.32-2.55,7.78-4.2a1.31,1.31,0,0,0,1.73.55c2-1.05,3.86-2.24,5.73-3.45.29-.19.34-.75.5-1.14,2.29-.27,4.06-1.72,6.06-2.66.8-.37.53-1.15.57-1.8,1.4-1.1,3.07-1.76,3.52-4a5.44,5.44,0,0,1,3.18-3.37v-3.7c2.24-.12.86-3,2.72-3.13a7.51,7.51,0,0,0-.77-5.3l-1.56-.17c-.31-.16-.3-.29-.07-.49s.55-.39.48-.82c-.49-3.36,1-6.59.69-9.95a3.23,3.23,0,0,1,.45-1.86,3,3,0,0,0-.14-3.15c-.4-.54-.51-1.31-.28-1.54,1.47-1.43.2-2.63-.32-3.79a2.73,2.73,0,0,1-.38-1.54c.1-.73.86-1.21.69-2.11a12.66,12.66,0,0,1,0-2.3l1.3-1.3V445c-1.2-.3-2.13-1.36-3.25-.91l-3.5-3.53a5.69,5.69,0,0,0-.87-3.81c-.2-.25-.58-.39-.5-.81.47-2.61-1.66-4.7-1.43-7.25-1.13-.88.12-1.73.18-2.53.22-2.61-1-5-.79-7.58.53-.51.81-1.41,1.93-1v-5.38c-2.4-1.22-4.1-3.46-6.07-5.31,1.32-4.39,3.58-8.39,3.53-13a3.75,3.75,0,0,0,2.56-2,41,41,0,0,1,2.44-3.76c.47-.67,1.15-1.64,1-2.26-.52-1.86.73-3.11,1.56-4.14a4.85,4.85,0,0,0,1.24-3.74l2.82-2.81h2.29c1.1-1,1.46-2.53,3.08-2.76,1.12-.15.76-1.73,1.79-2.11,1.62-.58,2-2.39,3.33-3.32.57-.41.26-1,.35-1.57a30.21,30.21,0,0,0,6.16-5.9c2.1-2.46,3.48-5.63,6.67-7.08a1.82,1.82,0,0,0,.48-.48c3.34-3.82,7.49-6.78,11.06-10.36,2.52-2.53,4.93-5.2,8.24-7.26a7.45,7.45,0,0,0,5.45-2.42c2.62-2.79,5.9-4.81,8.46-7.66,1-1.13,2.57-1.67,3.56-2.91a79.77,79.77,0,0,1,7.48-8.82c.8-.75.35-1.78,1.07-2.69.91-1.16,1.83-2.46,2.82-3.53,2.32-2.5,2.8-6,5.18-8.49a2.52,2.52,0,0,0,.89-2.32c-.53-1.81,1.22-2.94,1.36-4.55,2.3-2,2.51-5.19,4.52-7.36.73-.78.4-2-.37-3,1.1-.72,1.7-1.94,3.08-2.47.89-.33,1.42-1.41,1.77-2.62a7.4,7.4,0,0,1,2.37-4.1c1-.75.85-2.37,2.34-2.78-.53-2.88,1.17-5.47.52-8.41L614,259c-.39-1.8.49-3.54-.71-5,.87-.18.19-1.62,1.29-1.64v-8.19C612.59,244.37,610.8,242.71,608.59,243.83Z"/></g><g id="Ebene_3" data-name="Ebene 3"><circle class="cls-2" cx="136.86" cy="238.58" r="8.56"/><circle class="cls-2" cx="224.35" cy="34.3" r="8.56"/><circle class="cls-2" cx="92.37" cy="51.41" r="8.56"/><circle class="cls-2" cx="61.14" cy="167.56" r="8.56"/><circle class="cls-2" cx="25.63" cy="204.78" r="8.56"/><circle class="cls-2" cx="238.39" cy="196.23" r="8.56"/><circle class="cls-2" cx="19.21" cy="230.03" r="8.56"/><circle class="cls-2" cx="136.86" cy="238.58" r="8.56"/><circle class="cls-2" cx="58.71" cy="263.39" r="8.56"/><circle class="cls-2" cx="176.64" cy="254.84" r="8.56"/><circle class="cls-2" cx="101.92" cy="287.35" r="8.56"/><circle class="cls-2" cx="142.99" cy="287.35" r="8.56"/><circle class="cls-2" cx="167.09" cy="280.51" r="8.56"/><circle class="cls-2" cx="224.35" cy="269.24" r="8.56"/><circle class="cls-2" cx="422.21" cy="204.78" r="8.56"/><circle class="cls-2" cx="492.37" cy="216.76" r="8.56"/><circle class="cls-2" cx="524.88" cy="249.28" r="8.56"/><circle class="cls-2" cx="507.77" cy="274.52" r="8.56"/><circle class="cls-2" cx="551.83" cy="323.29" r="8.56"/><circle class="cls-2" cx="332.79" cy="292.63" r="8.56"/><circle class="cls-2" cx="263.77" cy="311.74" r="8.56"/><circle class="cls-2" cx="255.22" cy="357.94" r="8.56"/><circle class="cls-2" cx="443.6" cy="342.4" r="8.56"/><circle class="cls-2" cx="422.21" cy="364.07" r="8.56"/><circle class="cls-2" cx="421.07" cy="387.46" r="8.56"/><circle class="cls-2" cx="308.41" cy="466.6" r="8.56"/><circle class="cls-2" cx="462.85" cy="412.13" r="8.56"/><circle class="cls-2" cx="399.96" cy="484.72" r="8.56"/><circle class="cls-2" cx="462.85" cy="513.38" r="8.56"/><circle class="cls-2" cx="365.74" cy="559.01" r="8.56"/><circle class="cls-2" cx="422.07" cy="529.49" r="8.56"/><circle class="cls-2" cx="362.74" cy="647.14" r="8.56"/></g></svg>