<svg id="Pfad" xmlns="http://www.w3.org/2000/svg" viewBox="0 0 394.19 362.09"><defs><style>.cls-1{fill:#c08845;}</style></defs><path class="cls-1" d="M393,269.05l-49.9-50.82,1.56-1.63,22.21-22.22a28.21,28.21,0,0,0-13.53-47.44,28.33,28.33,0,0,0-5.87-31.35l-2.67-2.66a28,28,0,0,0-13.06-7.4,28.27,28.27,0,0,0-6.54-29.67l-2.67-2.66A28,28,0,0,0,309,65.68a28.23,28.23,0,0,0-7.28-27.34L299,35.68a28.29,28.29,0,0,0-33.28-4.94A51.12,51.12,0,0,0,223.57,14.8l-58.44-.23h0a9,9,0,0,0-8.6,6.33,41.43,41.43,0,0,0-.38,20.72,28.57,28.57,0,0,0-5.33-.5,28,28,0,0,0-20,8.24L128.15,52a28.25,28.25,0,0,0-7.27,27.34,28,28,0,0,0-13.54,7.51l-2.67,2.67a28.28,28.28,0,0,0-6.54,29.66,28.13,28.13,0,0,0-13.06,7.4l-2.67,2.67a28.28,28.28,0,0,0-5.87,31.34A28.25,28.25,0,0,0,63,208.07L78.53,223.6,4,298.16A9,9,0,0,0,16.7,310.89L92,235.63l.2-.22a28.29,28.29,0,0,0,33.07-5h0a28.14,28.14,0,0,0,8.23-20.89l.93,0a28.11,28.11,0,0,0,20-8.26l2.67-2.67a28,28,0,0,0,8.23-19.11l1.13,0a28,28,0,0,0,20-8.24l2.67-2.67a28,28,0,0,0,8.23-19.25,28.08,28.08,0,0,0,19.94-8.24l2.66-2.67h0A28.28,28.28,0,0,0,221,99.72a10.18,10.18,0,0,1,1.67-2.22l49.1-49.1a10.25,10.25,0,0,1,14.48,0l2.66,2.67a10.25,10.25,0,0,1-.06,14.54L260.61,94.44l-.86.86a8.69,8.69,0,0,0-2.06,3.22l-5.12,5.21a9,9,0,1,0,12.84,12.61l29.87-30.42a10.31,10.31,0,0,1,14.48,0l2.66,2.67a10.28,10.28,0,0,1,0,14.48c-.11.11-.22.22-.32.34l-23,25.48-5.62,5.71a9,9,0,0,0,12.85,12.62l21.17-21.56a10.25,10.25,0,0,1,14.48,0l2.66,2.67a10.28,10.28,0,0,1,0,14.48l-.14.15-20.05,21-.09.11a3.62,3.62,0,0,0-.36.42l-.23.27-.3.43-.21.33c-.08.13-.15.26-.22.4l-.21.39c-.05.12-.11.24-.16.37l-.18.44c0,.12-.07.24-.11.36s-.1.31-.14.47-.06.24-.08.37a3.7,3.7,0,0,0-.09.48c0,.13,0,.26-.05.39s0,.3-.05.45,0,.29,0,.44v.42c0,.15,0,.31,0,.46l0,.39c0,.16.06.32.08.48s0,.25.08.38.08.3.12.45l.12.4.15.4c.06.14.11.29.18.43s.11.23.17.35.16.31.25.46l.18.3c.1.15.2.31.31.46a1,1,0,0,0,.08.11c0,.06.09.1.13.15s.28.36.44.53l.27.28c.05.05.09.11.15.16s.2.17.3.26l.29.25a6.61,6.61,0,0,0,.6.44l.18.13a8.6,8.6,0,0,0,.84.47l.21.09c.22.11.45.2.68.29l.28.09c.21.07.43.14.65.19l.29.07c.23.05.45.09.68.12l.27,0c.31,0,.63.05.94.05h0c.27,0,.55,0,.82,0l.2,0,.62-.1.23,0,.62-.16.2,0c.26-.09.52-.18.78-.29h0c.24-.1.48-.22.71-.34l.28-.16a5.08,5.08,0,0,0,.43-.27l.3-.2.17-.12,7.87-5.89.09-.07.09-.07,4.36-3.43a9,9,0,0,0,.8-.71,10.24,10.24,0,1,1,14.48,14.48L331.8,203.94l-.15.16-59,61.9c-.25.25-24.84,25.45-60.9,22a9,9,0,0,0-7.19,2.56L134.1,360.21A9,9,0,1,0,146.75,373l49.58-49c18.78,10,33.81,10,41.72,8.89l39.86,41.06a9,9,0,0,0,12.92-12.54l-43.3-44.6a8.6,8.6,0,0,0-9.46-2.22c-1.1.33-11.7,3.21-28.18-4l4.42-4.37c42.6,2.1,70.21-26.56,71.37-27.79l44.94-47.14,49.48,50.39A9,9,0,0,0,393,269.05ZM112.5,217.63a10.25,10.25,0,0,1-14.48,0L75.73,195.34a10.24,10.24,0,0,1,14.48-14.47l22.29,22.28A10.25,10.25,0,0,1,112.5,217.63Zm31.79-31.79h0l-2.66,2.66a10.25,10.25,0,0,1-14.48,0l-32-32a10.25,10.25,0,0,1,0-14.48l2.67-2.67a10.26,10.26,0,0,1,14.48,0l32,32a10.28,10.28,0,0,1,0,14.48Zm32-30-2.67,2.67a10.31,10.31,0,0,1-14.48,0L117.4,116.76a10.25,10.25,0,0,1,0-14.48l2.67-2.67a10.31,10.31,0,0,1,14.48,0l41.74,41.74A10.25,10.25,0,0,1,176.29,155.83Zm30.84-30.16-2.67,2.67a10.31,10.31,0,0,1-14.48,0l-49.1-49.1a10.25,10.25,0,0,1,0-14.48l2.67-2.67a10.3,10.3,0,0,1,14.47,0l49.11,49.1A10.25,10.25,0,0,1,207.13,125.67ZM210,84.78c-.64.64-1.23,1.31-1.8,2L192.72,71.33h24.36a9,9,0,0,0,0-18H193.41c-8.76-2.15-14.75-5.89-17.83-11.11A19.81,19.81,0,0,1,173,32.61L224,32.8a7,7,0,0,0,.93,0,33.23,33.23,0,0,1,27.29,9.82Z" transform="translate(-1.33 -14.57)"/></svg>