<svg id="Pfad" xmlns="http://www.w3.org/2000/svg" viewBox="0 0 266.52 396.69"><defs><style>.cls-1{fill:#c08845;}</style></defs><path class="cls-1" d="M245.29,181.26c-.27,0-.54,0-.82,0H154.56c-11.23.36-17.51,5.36-20.81,9.5-7.56,9.47-6.14,22.21-5.6,25.53l9.47,154.9c-.07,17.76,16.15,24.52,24.79,25.62a8.68,8.68,0,0,0,1.13.07h72a8.47,8.47,0,0,0,1.13-.07c8.65-1.1,24.87-7.86,24.79-25.62l9.48-154.9c.53-3.32,2-16.06-5.6-25.53C262.12,186.69,256,181.82,245.29,181.26Zm7.86,32.24a9.36,9.36,0,0,0-.15,1.17l-9.52,155.71c0,.24,0,.47,0,.71.1,5.72-6.46,7.37-8.61,7.76h-70.6c-2.25-.41-8.72-2.08-8.63-7.76,0-.24,0-.47,0-.71l-9.53-155.71a8.39,8.39,0,0,0-.13-1.11c-.36-2-.77-8.35,1.89-11.64.51-.62,2-2.5,7.17-2.7h89.07c5.14.2,6.66,2.08,7.16,2.7C253.91,205.21,253.49,211.59,253.15,213.5Z" transform="translate(-66.28 -0.16)"/><path class="cls-1" d="M199.54,85.33A42.59,42.59,0,1,0,157,42.75,42.64,42.64,0,0,0,199.54,85.33Zm0-67.17A24.59,24.59,0,1,1,175,42.75,24.62,24.62,0,0,1,199.54,18.16Z" transform="translate(-66.28 -0.16)"/><path class="cls-1" d="M326.31,154c-4.42-5.08-10.59-8.13-18.41-9.13a9,9,0,0,0-2.22-.29h-.84a53.3,53.3,0,0,0-5.93,0H100.29a48.91,48.91,0,0,0-10.74.52c-11.24-21.87,2.13-41.41,7.17-46.75A21,21,0,1,0,84.61,85c-6,5.86-10.64,15.07-10.91,15.61-8.64,17.42-8.68,36-.2,52.62-.24.25-.49.5-.72.77-8.63,9.94-6.28,23.08-6,24.54l.06.29,4,16.94a9,9,0,0,0,8.75,6.92h33.89a9,9,0,0,0,0-18H86.75L84.44,175c-.11-.81-.75-6.14,2-9.21s8.64-3.45,13.09-3.19l.53,0H304.25c3.29.24,6.56,1.08,8.41,3.17,2.77,3.12,2.08,8.57,2,9.17l-2.31,9.77H285.56a9,9,0,0,0,0,18h33.89a9,9,0,0,0,8.76-6.92l4-16.94a2.46,2.46,0,0,0,.07-.29C332.58,177.07,334.94,163.93,326.31,154Z" transform="translate(-66.28 -0.16)"/><path class="cls-1" d="M114.61,133.6a9,9,0,0,0,9,8.45l.57,0a9,9,0,0,0,8.43-9.54c-.73-11.65,1.76-20,7.39-24.9,6.28-5.44,15.89-6.18,22.21-5.79,7.58,16.38,26.91,20.28,37.36,19.91,10.46.37,29.79-3.53,37.37-19.91,6.32-.39,15.92.35,22.21,5.79,5.63,4.88,8.11,13.25,7.39,24.9a9,9,0,0,0,8.42,9.54l.57,0a9,9,0,0,0,9-8.45c1.1-17.54-3.47-30.87-13.57-39.62-16.35-14.15-39.85-9.76-42.48-9.21a9,9,0,0,0-6.91,6.72c-3,12.76-20.83,12.26-21.55,12.23-.19,0-.38,0-.57,0h-.23c-.75,0-18.54.54-21.58-12.22a9,9,0,0,0-6.92-6.72c-2.62-.55-26.12-4.94-42.48,9.22C118.08,102.73,113.52,116.06,114.61,133.6Z" transform="translate(-66.28 -0.16)"/></svg>