<svg id="Pfad" xmlns="http://www.w3.org/2000/svg" viewBox="0 0 322.61 394.6"><defs><style>.cls-1{fill:#c08845;}</style></defs><path class="cls-1" d="M352.29,43l-.19-.28c-18-25.54-32.46-29.26-39.61-29.15a21.81,21.81,0,1,0,.75,16.56l.39,1.21a4,4,0,0,1-.92.22c.12,0,9.14-.42,24.49,21.27.86,1.5,7.43,14.1-.52,34.34L271.43,193.06c-16.68,23.19-30.49,21.9-32.25,21.63l-.36-.14-1-.1A33.68,33.68,0,0,1,210,194.84l-.3-.79L143.81,87.2c-7.95-20.24-1.38-32.84-.52-34.34,15.35-21.69,24.4-21.27,24.49-21.27a4,4,0,0,1-.92-.22l.37-1.15A21.79,21.79,0,1,0,168,13.6c-7.16-.09-21.61,3.66-39.57,29.15l-.19.28c-.55.84-13.23,20.95-.8,51.62l.28.7,65.86,106.83c2.06,4.7,12.39,25,38,29.56,1.3,20.1,5.58,136.13-66.16,145.86h-3.79c-78-10.56-66.08-142.79-66-144.12l0-8.27a51.15,51.15,0,1,0-18-.16v7.13c-.41,4.55-3.13,38.86,4.21,75,10.7,52.67,37.66,83.22,78,88.36l.56.07h6.11l.56-.07c40.33-5.14,67.3-36.52,78-90.75,6.24-31.68,5.2-62,4.5-73.22,9.8-2.41,23.24-9.44,36.71-28.28L352.81,95.35l.28-.7C365.52,64,352.84,43.87,352.29,43ZM53.93,174.76a33.17,33.17,0,1,1,33.16,33.17A33.2,33.2,0,0,1,53.93,174.76Z" transform="translate(-35.93 -1)"/></svg>