<svg id="Pfad" xmlns="http://www.w3.org/2000/svg" viewBox="0 0 397.37 337.79"><defs><style>.cls-1{fill:#c08845;}</style></defs><circle class="cls-1" cx="159.15" cy="126.98" r="20.7"/><circle class="cls-1" cx="85.63" cy="153.75" r="20.7" transform="translate(-23 -11.07) rotate(-9.22)"/><circle class="cls-1" cx="231.63" cy="153.75" r="20.7" transform="translate(1.46 282.14) rotate(-67.5)"/><path class="cls-1" d="M375.5,339.4c-14.87-4.19-20.84-11.82-23.21-16.66,28.4-22.57,44.56-54.44,44.56-88.38,0-24.89-8.61-48.73-24.9-68.93-14.79-18.33-34.85-32.43-58.23-41-7-22.84-21.57-43.74-42.84-60.66-30-23.87-69.76-37-112-37s-82,13.14-112,37C16.34,88.13-.52,120.68-.52,155.45c0,25.15,9,49.49,25.9,70.41,13.79,17,32.3,31.1,54,41.18-9.45,9.88-24.27,22.81-38.11,26.33a9,9,0,0,0-2.56,16.35c1,.6,12.86,7.76,34,7.76,17.88,0,42.36-5.15,72.37-23.74a127.13,127.13,0,0,0,44.14,40.83A147.87,147.87,0,0,0,262,353.34a153.5,153.5,0,0,0,27.22-2.43,90.4,90.4,0,0,0,48.06,13.64,96.77,96.77,0,0,0,39.81-8.42,9,9,0,0,0-1.56-16.73Zm-306.1-40c17.94-12.35,31.28-29.3,32.06-30.29A9,9,0,0,0,97.23,255c-48.45-18.46-79.75-57.52-79.75-99.59,0-61,63.45-110.68,141.43-110.68S300.34,94.42,300.34,155.45,236.89,266.13,158.91,266.13l-2.35,0a9.08,9.08,0,0,0-5.48,1.77c-34.19,25.37-60.48,31.17-76.52,31.57C72.75,299.49,71,299.47,69.4,299.4ZM296,333.92l0,0-.53-.32a9,9,0,0,0-6.29-1,135.45,135.45,0,0,1-27.2,2.75c-42.12,0-81.06-19.86-101.7-51.22,41.7-.28,80.94-13.39,110.61-37,30.6-24.35,47.46-56.91,47.46-91.67q0-4.9-.45-9.75c37,17.53,61,51.62,61,88.66,0,30.09-15.4,58.41-42.25,77.69a9,9,0,0,0-3.7,8.17h0s0,.11,0,.2a.68.68,0,0,1,0,.14c.3,2.29,2.5,14.81,15.52,25.23A74.15,74.15,0,0,1,296,333.92Z" transform="translate(0.52 -26.77)"/></svg>