<svg id="Pfad" xmlns="http://www.w3.org/2000/svg" viewBox="0 0 393.01 295.86"><defs><style>.cls-1{fill:#c08845;}</style></defs><path class="cls-1" d="M74.46,164.6a59,59,0,1,0-59-59A59.06,59.06,0,0,0,74.46,164.6Zm0-100a41,41,0,1,1-41,41A41,41,0,0,1,74.46,64.6Z" transform="translate(-1.26 -46.6)"/><path class="cls-1" d="M235.86,153.84a19.58,19.58,0,0,0-18.16,26.93s20.87,4.71,25.1,10.19a12.06,12.06,0,0,0,1.7,0,19.56,19.56,0,0,0-8.64-37.12Z" transform="translate(-1.26 -46.6)"/><path class="cls-1" d="M235.21,197.42l-15.66-7.34a6.25,6.25,0,0,0-8.29,3l-3.7,8.93c-8.94,1-15.79,6.33-17.59,7.84l-37.56,27.89c-10.9-10.71-35-34.35-44.22-43.19-.22-.29-.67-1-1-1.45-4.27-6.42-14.25-21.41-45-22.37a52,52,0,0,0-27.22,5.9C22.3,183.23,6.24,198.19,1.35,232.28a9.18,9.18,0,0,0-.09,1.28v96a9,9,0,0,0,18,0V234.21c3.06-20.53,10.87-34.38,23.23-41.18a35,35,0,0,1,18.07-4.33c.26,0,.51.05.77.06,21.72.6,27.46,9.21,30.88,14.35a24.14,24.14,0,0,0,3.36,4.32c11.75,11.25,49.33,48.21,49.71,48.58a9,9,0,0,0,11.68.81l44-32.66.56-.45c1.35-1.17,6.13-4.36,10.12-3.76,2.45.36,4.81,2.31,7,5.8a5.09,5.09,0,0,0,1.19,1.52,2.12,2.12,0,0,1,.44,1.17c-.06.7-.88,2.14-3,3.94L153,282.63l-.22.16c-1.74,1.12-10.67,5.66-24.9-6.84L98.08,245.84a9,9,0,0,0-15.4,6.09L80.6,330a9,9,0,0,0,8.75,9.24h.25a9,9,0,0,0,9-8.76l1.52-57,15.17,15.34.43.4c23.85,21.15,43.55,11.78,48.74,7.28l42.65-33.33,6.44,1.61a6.26,6.26,0,0,0,7.79-4.15l4.54-12.13,2.61-2,.22-.18c7.61-6.34,9.41-12.85,9.58-17.2a20,20,0,0,0-4.87-13.67l-.24-.34,5.08-9.38A6.25,6.25,0,0,0,235.21,197.42Z" transform="translate(-1.26 -46.6)"/><path class="cls-1" d="M335.27,164.6a59,59,0,1,0-59-59A59.07,59.07,0,0,0,335.27,164.6Zm0-100a41,41,0,1,1-41,41A41,41,0,0,1,335.27,64.6Z" transform="translate(-1.26 -46.6)"/><path class="cls-1" d="M345.82,170.36H333.14c-32.61,0-52.87,24.85-52.87,64.86v94.34a9,9,0,0,0,18,0V235.22c0-14.09,3.4-46.86,34.87-46.86h12.68c20.21,0,30.45,17,30.45,50.69v94.41a9,9,0,1,0,18,0V239.05C394.27,179.28,363.91,170.36,345.82,170.36Z" transform="translate(-1.26 -46.6)"/></svg>