<svg id="Ebene_1" data-name="Ebene 1" xmlns="http://www.w3.org/2000/svg" viewBox="0 0 494.69 157.38"><defs><style>.cls-1{fill:#5c1817;}.cls-2{fill:#dbc3a4;}</style></defs><path class="cls-1" d="M56.05,81.25H26.85l-5.22,18H0L29.9,6.62H53L83,99.25H61.33ZM31.62,64.7H51.28L41.61,31.56h-.38Z"/><path class="cls-1" d="M153.42,66.29q0,15.72-6.74,25t-20,9.29a19.26,19.26,0,0,1-9.86-2.45,21.16,21.16,0,0,1-7.13-7l-1.39,8.14H89.67V0h21.51V37.09a20.75,20.75,0,0,1,6.65-5.88,17.94,17.94,0,0,1,8.75-2.07q13.29,0,20.07,9.73T153.42,65ZM132,65q0-9.16-2.29-14.22t-8.52-5.06a13,13,0,0,0-6,1.3,9.78,9.78,0,0,0-4,3.79V79.65a9.19,9.19,0,0,0,4,3.31A15.29,15.29,0,0,0,121.3,84c4.23,0,7.08-1.47,8.52-4.42S132,72.23,132,66.29Z"/><path class="cls-2" d="M216.44,79.27H183.93l-6.3,20H158.86L190.74,6.62h19l31.75,92.63H222.74ZM188.51,64.7h23.35L200.41,28.31H200Z"/><path class="cls-2" d="M301.15,79.27H268.64l-6.3,20H243.58L275.45,6.62h19l31.75,92.63H307.45ZM273.22,64.7h23.35L285.12,28.31h-.38Z"/><path class="cls-2" d="M368.43,49.31h.38L389,6.62H409.4L377.59,66.68V99.25H359.08V65.72L327.84,6.62H348.2Z"/><path class="cls-2" d="M492,61.27q0,17.06-10.78,28.18t-28,11.14q-17.11,0-27.8-11.14T414.71,61.27V44.6q0-17,10.66-28.16T453.14,5.28q17.24,0,28.06,11.16T492,44.6ZM473.43,44.52q0-10.85-5.4-17.79t-14.89-6.94q-9.48,0-14.7,6.91t-5.21,17.82V61.35q0,11,5.28,18t14.69,7q9.56,0,14.89-7t5.34-18Z"/><path class="cls-2" d="M1.2,152.33V134.66H7.27a7.29,7.29,0,0,1,5.34,2.07,7.13,7.13,0,0,1,2.1,5.31V145a7.13,7.13,0,0,1-2.1,5.31,7.32,7.32,0,0,1-5.34,2.05Zm3.55-14.94V149.6H7.09a3.67,3.67,0,0,0,3-1.29A5,5,0,0,0,11.15,145v-3a4.94,4.94,0,0,0-1.08-3.33,3.67,3.67,0,0,0-3-1.29Z"/><path class="cls-2" d="M16.9,145.64a7.07,7.07,0,0,1,1.64-4.81A5.71,5.71,0,0,1,23.08,139a5.75,5.75,0,0,1,4.56,1.87,7,7,0,0,1,1.65,4.81v.26a7,7,0,0,1-1.64,4.82,5.73,5.73,0,0,1-4.55,1.87,5.72,5.72,0,0,1-4.55-1.87,7,7,0,0,1-1.65-4.82Zm3.53.25a5.69,5.69,0,0,0,.63,2.88,2.19,2.19,0,0,0,2,1.09,2.16,2.16,0,0,0,2-1.09,5.64,5.64,0,0,0,.64-2.88v-.25a5.62,5.62,0,0,0-.65-2.85,2.17,2.17,0,0,0-2-1.1,2.14,2.14,0,0,0-2,1.11,5.58,5.58,0,0,0-.64,2.84Z"/><path class="cls-2" d="M35.45,152.33H31.91V133.4h3.54Z"/><path class="cls-2" d="M41.9,139.2l.15,1.74a4.35,4.35,0,0,1,1.58-1.47,4.58,4.58,0,0,1,2.2-.51,4,4,0,0,1,2.16.56,3.43,3.43,0,0,1,1.36,1.68,4.64,4.64,0,0,1,1.58-1.65,4.32,4.32,0,0,1,2.28-.59,3.75,3.75,0,0,1,3.06,1.34,6.23,6.23,0,0,1,1.13,4.08v8H53.85v-8a3.38,3.38,0,0,0-.48-2.08,1.79,1.79,0,0,0-1.45-.58,2.49,2.49,0,0,0-1.3.33,2.54,2.54,0,0,0-.88.93c0,.16,0,.29,0,.4s0,.22,0,.33v8.65H46.23v-8a3.37,3.37,0,0,0-.48-2.06,1.77,1.77,0,0,0-1.46-.6A2.78,2.78,0,0,0,43,142a2.44,2.44,0,0,0-.89.77v9.6H38.61V139.2Z"/><path class="cls-2" d="M66.18,152.59a5.91,5.91,0,0,1-4.54-1.82,6.55,6.55,0,0,1-1.7-4.63v-.48a7.2,7.2,0,0,1,1.61-4.82,6,6,0,0,1,8.44-.28,6.16,6.16,0,0,1,1.47,4.33v1.93H63.62l0,.07a3.43,3.43,0,0,0,.87,2.13,2.71,2.71,0,0,0,2.1.84,6.73,6.73,0,0,0,2-.24,9.24,9.24,0,0,0,1.7-.75l1,2.19a6.47,6.47,0,0,1-2.1,1.09A9.08,9.08,0,0,1,66.18,152.59Zm-.32-10.9a1.85,1.85,0,0,0-1.55.75,4,4,0,0,0-.71,2l0,.06H68v-.31a2.87,2.87,0,0,0-.53-1.81A1.89,1.89,0,0,0,65.86,141.69Z"/><path class="cls-2" d="M78,136v3.22h2.21v2.49H78v6.69a1.61,1.61,0,0,0,.31,1.09,1.12,1.12,0,0,0,.85.32,3.23,3.23,0,0,0,.48,0,3.65,3.65,0,0,0,.47-.1l.31,2.56a7.38,7.38,0,0,1-1.05.27,5.49,5.49,0,0,1-1.1.1,3.78,3.78,0,0,1-2.82-1,4.42,4.42,0,0,1-1-3.19v-6.7H72.52V139.2h1.92V136Z"/><path class="cls-2" d="M89.79,148.72a1.22,1.22,0,0,0-.56-1,5.48,5.48,0,0,0-2.09-.75,8.47,8.47,0,0,1-3.52-1.41A3,3,0,0,1,82.44,143a3.62,3.62,0,0,1,1.43-2.88A5.77,5.77,0,0,1,87.68,139a6.23,6.23,0,0,1,4,1.18,3.47,3.47,0,0,1,1.43,3l0,.07H89.66a1.78,1.78,0,0,0-.5-1.29,2.43,2.43,0,0,0-2.83-.07,1.3,1.3,0,0,0-.49,1.05,1.2,1.2,0,0,0,.51,1,5.68,5.68,0,0,0,2.1.69,8.46,8.46,0,0,1,3.6,1.43,3.12,3.12,0,0,1,1.18,2.59,3.45,3.45,0,0,1-1.52,2.89,6.54,6.54,0,0,1-4,1.13,6.14,6.14,0,0,1-4.15-1.33,3.74,3.74,0,0,1-1.45-3l0-.07h3.24a1.83,1.83,0,0,0,.69,1.53,2.88,2.88,0,0,0,1.71.47,2.46,2.46,0,0,0,1.5-.39A1.25,1.25,0,0,0,89.79,148.72Z"/><path class="cls-2" d="M101.27,149.86a2.11,2.11,0,0,0,1.51-.55,2,2,0,0,0,.57-1.47h3.22l0,.07a4.12,4.12,0,0,1-1.5,3.34,6.32,6.32,0,0,1-8.37-.52A7.08,7.08,0,0,1,95.15,146v-.36a7.13,7.13,0,0,1,1.58-4.77,5.61,5.61,0,0,1,4.53-1.87,5.53,5.53,0,0,1,3.91,1.38,4.61,4.61,0,0,1,1.44,3.64l0,.08h-3.23a2.54,2.54,0,0,0-.56-1.7,1.87,1.87,0,0,0-1.53-.67,2.05,2.05,0,0,0-2,1.09,6,6,0,0,0-.58,2.81V146a6,6,0,0,0,.58,2.83A2.08,2.08,0,0,0,101.27,149.86Z"/><path class="cls-2" d="M112.33,140.86a4.51,4.51,0,0,1,1.52-1.4,4.39,4.39,0,0,1,5.21.86,6.38,6.38,0,0,1,1.17,4.22v7.79h-3.55V144.5a3.45,3.45,0,0,0-.53-2.17,2,2,0,0,0-1.61-.64,3.06,3.06,0,0,0-1.29.26,2.38,2.38,0,0,0-.92.74v9.64h-3.55V133.4h3.55Z"/><path class="cls-2" d="M129,152.59a5.91,5.91,0,0,1-4.54-1.82,6.55,6.55,0,0,1-1.7-4.63v-.48a7.2,7.2,0,0,1,1.61-4.82,6,6,0,0,1,8.44-.28,6.16,6.16,0,0,1,1.47,4.33v1.93H126.4l0,.07a3.43,3.43,0,0,0,.87,2.13,2.71,2.71,0,0,0,2.1.84,6.73,6.73,0,0,0,1.95-.24,9.24,9.24,0,0,0,1.7-.75l1,2.19a6.47,6.47,0,0,1-2.1,1.09A9.08,9.08,0,0,1,129,152.59Zm-.32-10.9a1.85,1.85,0,0,0-1.55.75,3.92,3.92,0,0,0-.71,2l0,.06h4.35v-.31a2.87,2.87,0,0,0-.53-1.81A1.89,1.89,0,0,0,128.64,141.69Z"/><path class="cls-2" d="M143.45,142.25l-1.3,0a2.33,2.33,0,0,0-1.29.33,2.08,2.08,0,0,0-.78.92v8.87h-3.53V139.2h3.29l.16,1.94a4.09,4.09,0,0,1,1.19-1.61,2.7,2.7,0,0,1,1.69-.57,2.6,2.6,0,0,1,.5,0l.45.1Z"/><path class="cls-2" d="M157.34,146.13a7.73,7.73,0,0,1-1.31,4.7,4.43,4.43,0,0,1-3.79,1.76,4,4,0,0,1-2-.48,4.15,4.15,0,0,1-1.45-1.41l-.27,1.63h-3V133.4H149v7.2a4,4,0,0,1,1.36-1.22,3.86,3.86,0,0,1,1.83-.42,4.34,4.34,0,0,1,3.81,1.89,8.66,8.66,0,0,1,1.31,5Zm-3.53-.25a7,7,0,0,0-.56-3.06,2,2,0,0,0-1.93-1.13,2.54,2.54,0,0,0-1.39.35,2.41,2.41,0,0,0-.9,1v5.59a2.28,2.28,0,0,0,.9.92,3,3,0,0,0,1.42.32,2,2,0,0,0,1.91-1,5.64,5.64,0,0,0,.55-2.76Z"/><path class="cls-2" d="M167.8,150.44a4.44,4.44,0,0,1-1.54,1.59,4.55,4.55,0,0,1-5.4-.77,6.15,6.15,0,0,1-1.17-4.13V139.2h3.53v8a3.37,3.37,0,0,0,.49,2.06,1.69,1.69,0,0,0,1.43.63,3.54,3.54,0,0,0,1.45-.28,2.4,2.4,0,0,0,1-.81V139.2h3.55v13.13h-3ZM164,137.07h-3.23v-2.48H164Zm6.06,0h-3.22v-2.48h3.22Z"/><path class="cls-2" d="M181,142.25l-1.3,0a2.34,2.34,0,0,0-1.3.33,2.08,2.08,0,0,0-.78.92v8.87h-3.53V139.2h3.29l.16,1.94a4.09,4.09,0,0,1,1.19-1.61,2.7,2.7,0,0,1,1.7-.57,2.56,2.56,0,0,1,.49,0l.45.1Z"/><path class="cls-2" d="M182.45,145.64a7.07,7.07,0,0,1,1.64-4.81,6.47,6.47,0,0,1,9.1,0,7,7,0,0,1,1.65,4.81v.26a7,7,0,0,1-1.64,4.82,6.47,6.47,0,0,1-9.1,0,7,7,0,0,1-1.65-4.82Zm3.54.25a5.81,5.81,0,0,0,.62,2.88,2.21,2.21,0,0,0,2,1.09,2.16,2.16,0,0,0,2-1.09,5.64,5.64,0,0,0,.64-2.88v-.25a5.62,5.62,0,0,0-.64-2.85,2.19,2.19,0,0,0-2-1.1,2.16,2.16,0,0,0-2,1.11,5.69,5.69,0,0,0-.63,2.84Z"/><path class="cls-2" d="M204.63,152.33V141.69h-1.95V139.2h1.95v-1.46a4.44,4.44,0,0,1,1.28-3.4,5.06,5.06,0,0,1,3.58-1.19,7.07,7.07,0,0,1,.91.06c.32,0,.66.11,1,.19l-.31,2.63-.56-.08a4,4,0,0,0-.64,0,1.69,1.69,0,0,0-1.3.48,1.88,1.88,0,0,0-.44,1.35v1.46h2.61v2.49h-2.61v10.64Z"/><path class="cls-2" d="M220.86,150.44a4.28,4.28,0,0,1-1.54,1.59,4.53,4.53,0,0,1-5.39-.77,6.15,6.15,0,0,1-1.17-4.13V139.2h3.53v8a3.45,3.45,0,0,0,.48,2.06,1.72,1.72,0,0,0,1.44.63,3.54,3.54,0,0,0,1.45-.28,2.4,2.4,0,0,0,1-.81V139.2h3.54v13.13h-3Zm-3.81-13.37h-3.22v-2.48h3.22Zm6.07,0h-3.23v-2.48h3.23Z"/><path class="cls-2" d="M234,142.25l-1.3,0a2.33,2.33,0,0,0-1.29.33,2.08,2.08,0,0,0-.78.92v8.87h-3.53V139.2h3.29l.16,1.94a4.09,4.09,0,0,1,1.19-1.61A2.86,2.86,0,0,1,234,139l.45.1Z"/><path class="cls-2" d="M250.21,152.33a6.63,6.63,0,0,1-.33-1,5.82,5.82,0,0,1-.2-1,5.1,5.1,0,0,1-1.44,1.59,3.6,3.6,0,0,1-2.13.63,4.41,4.41,0,0,1-3.18-1.07,3.8,3.8,0,0,1-1.12-2.89,3.46,3.46,0,0,1,1.49-3,7.41,7.41,0,0,1,4.34-1.06h2v-1.05a2.06,2.06,0,0,0-.5-1.47,2,2,0,0,0-1.47-.52,1.93,1.93,0,0,0-1.33.42,1.49,1.49,0,0,0-.47,1.16h-3.42V143a3.33,3.33,0,0,1,1.44-2.86,6.27,6.27,0,0,1,4-1.21,5.87,5.87,0,0,1,3.82,1.19,4.14,4.14,0,0,1,1.47,3.41V149a10.57,10.57,0,0,0,.14,1.74,8.56,8.56,0,0,0,.44,1.61ZM247,150a3,3,0,0,0,1.66-.46,2.37,2.37,0,0,0,1-1.06v-1.86h-2a2.38,2.38,0,0,0-1.71.56,1.83,1.83,0,0,0-.58,1.37,1.34,1.34,0,0,0,.43,1.05A1.68,1.68,0,0,0,247,150Z"/><path class="cls-2" d="M257,152.33V141.69h-1.95V139.2H257v-1.46a4.44,4.44,0,0,1,1.28-3.4,5.06,5.06,0,0,1,3.58-1.19,7.07,7.07,0,0,1,.91.06c.32,0,.66.11,1,.19l-.3,2.63L263,136a4,4,0,0,0-.64,0,1.69,1.69,0,0,0-1.3.48,1.88,1.88,0,0,0-.44,1.35v1.46h2.61v2.49h-2.61v10.64Z"/><path class="cls-2" d="M272.14,142.25l-1.3,0a2.34,2.34,0,0,0-1.3.33,2,2,0,0,0-.77.92v8.87h-3.54V139.2h3.29l.16,1.94a4.19,4.19,0,0,1,1.19-1.61,2.7,2.7,0,0,1,1.7-.57,2.49,2.49,0,0,1,.49,0l.45.1Z"/><path class="cls-2" d="M277.91,136.06h-3.55V133.4h3.55Zm0,16.27h-3.55V139.2h3.55Z"/><path class="cls-2" d="M285.58,146.83h-1v5.5h-3.54V133.4h3.54v10.74h.88l3-4.94h4.1l-4.2,6,4.85,7.18h-4.07Z"/><path class="cls-2" d="M302.34,152.33a8.14,8.14,0,0,1-.34-1,6.94,6.94,0,0,1-.2-1,4.87,4.87,0,0,1-1.44,1.59,3.58,3.58,0,0,1-2.13.63,4.4,4.4,0,0,1-3.17-1.07,3.77,3.77,0,0,1-1.12-2.89,3.46,3.46,0,0,1,1.48-3,7.41,7.41,0,0,1,4.34-1.06h2v-1.05a2.06,2.06,0,0,0-.5-1.47,2,2,0,0,0-1.47-.52,1.9,1.9,0,0,0-1.32.42,1.46,1.46,0,0,0-.47,1.16h-3.42l0-.08a3.34,3.34,0,0,1,1.45-2.86,6.26,6.26,0,0,1,4-1.21,5.92,5.92,0,0,1,3.83,1.19,4.14,4.14,0,0,1,1.47,3.41V149a9.58,9.58,0,0,0,.14,1.74,8.56,8.56,0,0,0,.44,1.61ZM299.09,150a3,3,0,0,0,1.67-.46,2.39,2.39,0,0,0,1-1.06v-1.86h-2a2.4,2.4,0,0,0-1.71.56,1.83,1.83,0,0,0-.58,1.37,1.34,1.34,0,0,0,.44,1.05A1.66,1.66,0,0,0,299.09,150Z"/><path class="cls-2" d="M311.46,139.2l.16,1.88a4.82,4.82,0,0,1,1.62-1.56,4.11,4.11,0,0,1,2.15-.56,3.92,3.92,0,0,1,3.1,1.25,5.74,5.74,0,0,1,1.12,3.92v8.2h-3.56v-8.21a2.66,2.66,0,0,0-.53-1.88,2.16,2.16,0,0,0-1.62-.55,2.75,2.75,0,0,0-1.26.28,2.68,2.68,0,0,0-.93.81v9.55h-3.54V139.2Z"/><path class="cls-2" d="M326.23,136.06h-3.55V133.4h3.55Zm0,16.27h-3.55V139.2h3.55Z"/><path class="cls-2" d="M336.49,148.72a1.25,1.25,0,0,0-.56-1,5.55,5.55,0,0,0-2.1-.75,8.48,8.48,0,0,1-3.51-1.41,3,3,0,0,1-1.18-2.53,3.61,3.61,0,0,1,1.42-2.88,5.8,5.8,0,0,1,3.82-1.18,6.25,6.25,0,0,1,4,1.18,3.46,3.46,0,0,1,1.42,3l0,.07h-3.42a1.75,1.75,0,0,0-.51-1.29,2.42,2.42,0,0,0-2.82-.07,1.3,1.3,0,0,0-.49,1.05,1.2,1.2,0,0,0,.51,1,5.62,5.62,0,0,0,2.09.69,8.57,8.57,0,0,1,3.61,1.43,3.14,3.14,0,0,1,1.17,2.59,3.44,3.44,0,0,1-1.51,2.89,6.57,6.57,0,0,1-4,1.13,6.11,6.11,0,0,1-4.14-1.33,3.71,3.71,0,0,1-1.45-3l0-.07h3.24a1.87,1.87,0,0,0,.7,1.53,2.86,2.86,0,0,0,1.71.47,2.48,2.48,0,0,0,1.5-.39A1.25,1.25,0,0,0,336.49,148.72Z"/><path class="cls-2" d="M348,149.86a2.13,2.13,0,0,0,1.52-.55,2,2,0,0,0,.57-1.47h3.22l0,.07a4.09,4.09,0,0,1-1.5,3.34,6.31,6.31,0,0,1-8.36-.52,7.08,7.08,0,0,1-1.59-4.77v-.36a7.13,7.13,0,0,1,1.58-4.77,6.33,6.33,0,0,1,8.44-.49A4.6,4.6,0,0,1,353.3,144l0,.08h-3.23a2.54,2.54,0,0,0-.56-1.7,1.88,1.88,0,0,0-1.54-.67,2,2,0,0,0-2,1.09,5.92,5.92,0,0,0-.58,2.81V146a5.87,5.87,0,0,0,.58,2.83A2.06,2.06,0,0,0,348,149.86Z"/><path class="cls-2" d="M359,140.86a4.48,4.48,0,0,1,1.51-1.4,4.05,4.05,0,0,1,2-.5,4,4,0,0,1,3.22,1.36,6.33,6.33,0,0,1,1.18,4.22v7.79h-3.55V144.5a3.38,3.38,0,0,0-.54-2.17,2,2,0,0,0-1.61-.64A3,3,0,0,0,360,142a2.38,2.38,0,0,0-.92.74v9.64h-3.55V133.4H359Z"/><path class="cls-2" d="M375.66,152.59a5.91,5.91,0,0,1-4.54-1.82,6.55,6.55,0,0,1-1.7-4.63v-.48a7.14,7.14,0,0,1,1.61-4.82,6,6,0,0,1,8.43-.28,6.11,6.11,0,0,1,1.47,4.33v1.93h-7.84l0,.07a3.38,3.38,0,0,0,.87,2.13,2.69,2.69,0,0,0,2.09.84,6.76,6.76,0,0,0,2-.24,9.54,9.54,0,0,0,1.7-.75l.95,2.19a6.27,6.27,0,0,1-2.1,1.09A9,9,0,0,1,375.66,152.59Zm-.32-10.9a1.83,1.83,0,0,0-1.55.75,3.83,3.83,0,0,0-.71,2l0,.06h4.34v-.31a2.86,2.86,0,0,0-.52-1.81A1.92,1.92,0,0,0,375.34,141.69Z"/><path class="cls-2" d="M399.51,147.72a2.05,2.05,0,0,0-.72-1.64,7.32,7.32,0,0,0-2.53-1.16,14.42,14.42,0,0,1-4.77-2.16,4.1,4.1,0,0,1-1.61-3.43,4.24,4.24,0,0,1,1.85-3.55,7.74,7.74,0,0,1,4.72-1.37A7.12,7.12,0,0,1,401.2,136a4.66,4.66,0,0,1,1.77,3.82l0,.07h-3.43a2.57,2.57,0,0,0-.82-2,3.22,3.22,0,0,0-2.3-.76,3.38,3.38,0,0,0-2.19.63,2,2,0,0,0-.78,1.62,1.73,1.73,0,0,0,.83,1.47,11.62,11.62,0,0,0,2.87,1.22,11.09,11.09,0,0,1,4.43,2.15,4.47,4.47,0,0,1,1.5,3.51,4.19,4.19,0,0,1-1.79,3.58,7.81,7.81,0,0,1-4.72,1.31,8.64,8.64,0,0,1-5-1.49,4.62,4.62,0,0,1-2.08-4.17l0-.07h3.45a2.72,2.72,0,0,0,1,2.31,4.35,4.35,0,0,0,2.69.73,3.53,3.53,0,0,0,2.21-.59A1.92,1.92,0,0,0,399.51,147.72Z"/><path class="cls-2" d="M417.54,146.13a7.52,7.52,0,0,1-1.35,4.68,4.44,4.44,0,0,1-3.76,1.78,4.1,4.1,0,0,1-1.83-.39,3.61,3.61,0,0,1-1.37-1.12v6.3h-3.54V139.2h3.19l.21,1.55a4.42,4.42,0,0,1,1.4-1.33,3.8,3.8,0,0,1,1.91-.46,4.37,4.37,0,0,1,3.79,1.9,8.5,8.5,0,0,1,1.35,5Zm-3.55-.27a6.31,6.31,0,0,0-.62-3,2,2,0,0,0-1.89-1.15,2.63,2.63,0,0,0-1.36.33,2.28,2.28,0,0,0-.89.93v5.76a2,2,0,0,0,.89.85,2.92,2.92,0,0,0,1.39.3,2,2,0,0,0,1.88-1,5.38,5.38,0,0,0,.6-2.74Z"/><path class="cls-2" d="M426.87,142.25l-1.3,0a2.33,2.33,0,0,0-1.29.33,2.08,2.08,0,0,0-.78.92v8.87H420V139.2h3.29l.16,1.94a4.09,4.09,0,0,1,1.19-1.61,2.68,2.68,0,0,1,1.69-.57,2.6,2.6,0,0,1,.5,0l.45.1Z"/><path class="cls-2" d="M436.63,152.33a8.14,8.14,0,0,1-.34-1,6.94,6.94,0,0,1-.2-1,4.87,4.87,0,0,1-1.44,1.59,3.58,3.58,0,0,1-2.13.63,4.4,4.4,0,0,1-3.17-1.07,3.77,3.77,0,0,1-1.12-2.89,3.46,3.46,0,0,1,1.48-3,7.41,7.41,0,0,1,4.34-1.06h2v-1.05a2.06,2.06,0,0,0-.5-1.47,2.33,2.33,0,0,0-2.8-.1,1.49,1.49,0,0,0-.46,1.16h-3.42l0-.08a3.34,3.34,0,0,1,1.45-2.86,6.26,6.26,0,0,1,4-1.21,5.92,5.92,0,0,1,3.83,1.19,4.14,4.14,0,0,1,1.47,3.41V149a10.61,10.61,0,0,0,.13,1.74,9.43,9.43,0,0,0,.45,1.61ZM433.38,150a3,3,0,0,0,1.67-.46,2.39,2.39,0,0,0,1-1.06v-1.86h-2a2.4,2.4,0,0,0-1.71.56,1.83,1.83,0,0,0-.58,1.37,1.34,1.34,0,0,0,.44,1.05A1.66,1.66,0,0,0,433.38,150Z"/><path class="cls-2" d="M448,149.86a2.11,2.11,0,0,0,1.51-.55,2,2,0,0,0,.57-1.47h3.22l0,.07a4.07,4.07,0,0,1-1.5,3.34,6.31,6.31,0,0,1-8.36-.52,7.08,7.08,0,0,1-1.59-4.77v-.36a7.13,7.13,0,0,1,1.58-4.77,6.33,6.33,0,0,1,8.44-.49,4.57,4.57,0,0,1,1.43,3.64l0,.08h-3.23a2.54,2.54,0,0,0-.56-1.7,1.88,1.88,0,0,0-1.54-.67,2,2,0,0,0-2,1.09,5.92,5.92,0,0,0-.58,2.81V146a5.87,5.87,0,0,0,.58,2.83A2.07,2.07,0,0,0,448,149.86Z"/><path class="cls-2" d="M459.09,140.86a4.57,4.57,0,0,1,1.51-1.4,4.08,4.08,0,0,1,2-.5,4,4,0,0,1,3.22,1.36,6.33,6.33,0,0,1,1.18,4.22v7.79h-3.55V144.5a3.38,3.38,0,0,0-.54-2.17,2,2,0,0,0-1.61-.64A3,3,0,0,0,460,142a2.38,2.38,0,0,0-.92.74v9.64h-3.55V133.4h3.55Z"/><path class="cls-2" d="M475.72,152.59a5.91,5.91,0,0,1-4.54-1.82,6.55,6.55,0,0,1-1.7-4.63v-.48a7.14,7.14,0,0,1,1.61-4.82,6,6,0,0,1,8.44-.28,6.16,6.16,0,0,1,1.47,4.33v1.93h-7.84l0,.07A3.43,3.43,0,0,0,474,149a2.69,2.69,0,0,0,2.09.84,6.76,6.76,0,0,0,2-.24,9.54,9.54,0,0,0,1.7-.75l.95,2.19a6.31,6.31,0,0,1-2.09,1.09A9.08,9.08,0,0,1,475.72,152.59Zm-.32-10.9a1.85,1.85,0,0,0-1.55.75,3.92,3.92,0,0,0-.71,2l0,.06h4.35v-.31a2.87,2.87,0,0,0-.53-1.81A1.91,1.91,0,0,0,475.4,141.69Z"/><path class="cls-2" d="M486.55,139.2l.15,1.88a4.82,4.82,0,0,1,1.62-1.56,4.13,4.13,0,0,1,2.15-.56,3.92,3.92,0,0,1,3.1,1.25,5.74,5.74,0,0,1,1.12,3.92v8.2h-3.56v-8.21a2.66,2.66,0,0,0-.53-1.88,2.14,2.14,0,0,0-1.61-.55,2.72,2.72,0,0,0-1.26.28,2.62,2.62,0,0,0-.94.81v9.55h-3.54V139.2Z"/><rect class="cls-2" x="1.2" y="117.58" width="493.49" height="3"/></svg>